<?xml version="1.0" encoding="UTF-8" standalone="no"?><svg        xmlns:dc="http://purl.org/dc/elements/1.1/"        xmlns:cc="http://creativecommons.org/ns#"        xmlns:rdf="http://www.w3.org/1999/02/22-rdf-syntax-ns#"        xmlns:svg="http://www.w3.org/2000/svg"        xmlns="http://www.w3.org/2000/svg"        xmlns:xlink="http://www.w3.org/1999/xlink"        id="svg2"        height="529.37195"        width="794.14081"        version="1.2">    <defs            id="defs4">        <linearGradient                id="linearGradient5767">            <stop                    offset="0"                    style="stop-color:#808080;stop-opacity:1"                    id="stop5769" />            <stop                    offset="1"                    style="stop-color:#ffffff;stop-opacity:0"                    id="stop5771" />        </linearGradient>        <linearGradient                id="linearGradient2351">            <stop                    offset="0"                    style="stop-color:#000000;stop-opacity:1"                    id="stop2352" />            <stop                    offset="1"                    style="stop-color:#000000;stop-opacity:0"                    id="stop2353" />        </linearGradient>        <linearGradient                id="linearGradient8065-4">            <stop                    offset="0"                    style="stop-color:#eda7ad;stop-opacity:0"                    id="stop8067-0" />            <stop                    offset="0.56770885"                    style="stop-color:#ffe5e7;stop-opacity:0.72685188"                    id="stop8069-5" />            <stop                    offset="0.85539532"                    style="stop-color:#ffe5e7;stop-opacity:1"                    id="stop8071-7" />            <stop                    offset="1"                    style="stop-color:#fdd1d5;stop-opacity:0"                    id="stop8073-9" />        </linearGradient>        <linearGradient                id="linearGradient7449-9">            <stop                    offset="0"                    style="stop-color:#6d0000;stop-opacity:1"                    id="stop7451-0" />            <stop                    offset="1"                    style="stop-color:#410606;stop-opacity:1"                    id="stop7453-9" />        </linearGradient>        <linearGradient                id="linearGradient8065">            <stop                    offset="0"                    style="stop-color:#eda7ad;stop-opacity:0"                    id="stop8067" />            <stop                    offset="0.56770885"                    style="stop-color:#ffe5e7;stop-opacity:0.72685188"                    id="stop8069" />            <stop                    offset="0.85539532"                    style="stop-color:#ffe5e7;stop-opacity:1"                    id="stop8071" />            <stop                    offset="1"                    style="stop-color:#fdd1d5;stop-opacity:0"                    id="stop8073" />        </linearGradient>        <linearGradient                id="linearGradient7449">            <stop                    offset="0"                    style="stop-color:#6d0000;stop-opacity:1"                    id="stop7451" />            <stop                    offset="1"                    style="stop-color:#410606;stop-opacity:1"                    id="stop7453" />        </linearGradient>        <linearGradient                id="linearGradient7956">            <stop                    offset="0"                    style="stop-color:#eda7ad;stop-opacity:0"                    id="stop7958" />            <stop                    offset="0.44514966"                    style="stop-color:#ffe5e7;stop-opacity:0.81132078"                    id="stop7960" />            <stop                    offset="0.63061994"                    style="stop-color:#ffe5e7;stop-opacity:1"                    id="stop7962" />            <stop                    offset="1"                    style="stop-color:#fdd1d5;stop-opacity:0"                    id="stop7964" />        </linearGradient>        <linearGradient                spreadMethod="pad"                gradientTransform="matrix(8.1294257,-0.57271404,-0.02507736,-1.3064966,-889.74123,1019.4835)"                gradientUnits="userSpaceOnUse"                xlink:href="#linearGradient8065"                id="linearGradient4606"                y2="236.6479"                x2="218.57143"                y1="236.6479"                x1="140" />        <linearGradient                id="linearGradient4658">            <stop                    offset="0"                    style="stop-color:#eda7ad;stop-opacity:0"                    id="stop4660" />            <stop                    offset="0.56770885"                    style="stop-color:#ffe5e7;stop-opacity:0.72685188"                    id="stop4662" />            <stop                    offset="0.85539532"                    style="stop-color:#ffe5e7;stop-opacity:1"                    id="stop4664" />            <stop                    offset="1"                    style="stop-color:#fdd1d5;stop-opacity:0"                    id="stop4666" />        </linearGradient>        <linearGradient                gradientTransform="scale(1.140928,0.87648)"                gradientUnits="userSpaceOnUse"                xlink:href="#linearGradient2351"                id="linearGradient5471"                y2="182.73497"                x2="243.37569"                y1="152.63947"                x1="138.42081" />        <linearGradient                gradientTransform="matrix(-1,0,0,1,1866.5312,-1008.1235)"                gradientUnits="userSpaceOnUse"                xlink:href="#linearGradient8065-4"                id="linearGradient5475"                y2="1525.5302"                x2="1036.0773"                y1="1516.9587"                x1="1203.332" />        <linearGradient                spreadMethod="reflect"                gradientTransform="matrix(-1,0,0,1,1866.0969,-1008.1235)"                gradientUnits="userSpaceOnUse"                xlink:href="#linearGradient7449-9"                id="linearGradient5477"                y2="1462.0669"                x2="1285.2543"                y1="1459.2097"                x1="1207.6637" />        <linearGradient                gradientTransform="translate(-1520.0209,-1008.1235)"                gradientUnits="userSpaceOnUse"                xlink:href="#linearGradient8065"                id="linearGradient5479"                y2="1525.5302"                x2="1036.0773"                y1="1516.9587"                x1="1203.332" />        <linearGradient                spreadMethod="reflect"                gradientTransform="translate(-1520.0209,-1008.1235)"                gradientUnits="userSpaceOnUse"                xlink:href="#linearGradient7449"                id="linearGradient5481"                y2="1462.0669"                x2="1285.2543"                y1="1459.2097"                x1="1207.6637" />        <linearGradient                spreadMethod="pad"                gradientTransform="matrix(-0.02901574,1.1713655,-0.02620067,-1.2972208,-691.30697,108.69741)"                gradientUnits="userSpaceOnUse"                xlink:href="#linearGradient7956"                id="linearGradient5483"                y2="236.6479"                x2="218.57143"                y1="236.6479"                x1="140" />        <linearGradient                spreadMethod="pad"                gradientTransform="matrix(8.1294257,-0.57271404,-0.02507736,-1.3064966,-806.83577,1031.9426)"                gradientUnits="userSpaceOnUse"                xlink:href="#linearGradient8065"                id="linearGradient5485"                y2="236.6479"                x2="218.57143"                y1="236.6479"                x1="140" />    </defs>    <metadata            id="metadata7">        <rdf:RDF>            <cc:Work                    rdf:about="">                <dc:format>image/svg+xml</dc:format>                <dc:type                        rdf:resource="http://purl.org/dc/dcmitype/StillImage" />                <dc:title></dc:title>            </cc:Work>        </rdf:RDF>    </metadata>    <path            d="m 422.15633,518.53346 c -12.97872,-0.40523 -1.49445,23.70678 -1.36262,36.74869 l -0.0593,0 -0.0593,0 -7.5253,270.2616 -0.0889,0 -0.0889,0 c -5.31853,61.0278 -13.41229,115.159122 -21.58489,156.070742 l -0.0297,0 -0.0311,0.0297 -4.27363,19.51626 -0.0297,0 -0.0311,0.0297 c -29.74156,69.81318 44.68863,5.91916 47.6602,50.77786 -1.63497,0.19311 -3.28126,0.045 4.8001,0.56355 3.19136,1.27841 5.62428,3.8795 7.74206,7.35566 4.23557,6.952332 7.4185,17.879632 9.56921,32.744602 6.00778,41.52391 1.45054,98.33736 128.72426,-10.68406 7.37115,-2.94358 12.47898,-6.06066 15.71978,-9.75502 43.80645,-1.33848 88.34841,-3.7128 131.0674,-6.90593 -1.4029,0.11691 -2.79826,0.0118 4.11879,0.47454 3.26262,1.20157 5.74459,3.79282 7.8969,7.26671 4.30464,6.94777 7.52119,17.9407 9.69309,32.95222 6.00777,41.52389 1.45055,98.36704 128.75391,-10.68406 6.61854,-2.64304 11.46428,-5.40115 14.77066,-8.57822 3.30638,-3.17706 5.14594,-7.36488 4.12274,-11.39633 -1.0232,-4.03145 -4.20253,-7.00525 -8.57173,-9.50728 -1.24221,-0.71135 -2.85372,-1.33362 -4.33036,-1.98195 5.11012,-0.91165 10.51356,-1.78001 15.24523,-2.72522 26.95288,-5.38418 45.09705,-10.66702 55.40481,-16.07254 5.15388,-2.70277 8.72119,-5.27755 9.93609,-9.44533 0.60745,-2.0839 0.21919,-4.50392 -0.86014,-6.31754 -1.07932,-1.8136 -2.67466,-3.18532 -4.62695,-4.42846 -7.80916,-4.9726 -22.5213,-8.47 -44.96451,-11.45827 -22.44322,-2.98828 -52.3873,-5.18929 -89.51378,-6.3485 z"            id="path6468"            style="color:#000000;font-style:normal;font-variant:normal;font-weight:normal;font-stretch:normal;font-size:medium;line-height:normal;font-family:Sans;-inkscape-font-specification:Sans;text-indent:0;text-align:start;text-decoration:none;text-decoration-line:none;letter-spacing:normal;word-spacing:normal;text-transform:none;direction:ltr;block-progression:tb;writing-mode:lr-tb;baseline-shift:baseline;text-anchor:start;display:inline;overflow:visible;visibility:visible;fill:#d7e7e7;fill-opacity:1;fill-rule:nonzero;stroke:none;stroke-width:7;marker:none;enable-background:accumulate" />    <path            d="m 433.81364,214.03575 c -4.99797,59.88379 -12.60808,113.01699 -20.27759,153.106832 l -4.03641,19.1707 c -17.02664,36.1912801 -34.06881,23.05284 38.77967,53.70238 -8.41368,5.97807 16.5158,7.140712 20.5016,35.906682 5.5677,40.18275 1.15591,96.11778 124.94696,-9.86943 7.83495,-2.99637 12.82652,-6.19164 15.18484,-9.33942 45.11502,-1.30027 91.14423,-3.63567 134.99658,-6.85121 -8.5025,6.41764 16.73332,6.69502 20.75834,35.74421 5.56769,40.18275 1.15592,96.11778 124.94694,-9.86942 25.11757,-9.60586 21.37296,-21.05556 -6.58478,-27.52615 9.93441,-1.55706 19.33833,-3.16556 28.02775,-4.82792 105.48135,-20.17943 72.86589,-40.06898 -72.85195,-44.42624 -12.39232,-0.37056 -1.40845,22.9191 -1.28129,36.05274 z"            id="path3860"            style="fill:#98bebe;fill-opacity:1;stroke:none" />    <flowRoot     transform="translate(-163.87573,-231.08861)"     id="flowRoot3189"     xml:space="preserve"     style="font-style:normal;font-variant:normal;font-weight:normal;font-stretch:normal;font-size:22px;line-height:125%;font-family:'Arial Black';-inkscape-font-specification:'Arial Black,';text-align:start;letter-spacing:0px;word-spacing:0px;writing-mode:lr-tb;text-anchor:start;fill:#000000;fill-opacity:1;stroke:none"><flowRegion       id="flowRegion3191"><rect         width="8.2570524"         height="165.14104"         x="835.61365"         y="1025.0096"         id="rect3193"         style="font-style:normal;font-variant:normal;font-weight:normal;font-stretch:normal;font-size:22px;line-height:125%;font-family:'Arial Black';-inkscape-font-specification:'Arial Black,';text-align:start;writing-mode:lr-tb;text-anchor:start" /></flowRegion><flowPara       id="flowPara3197" /></flowRoot>  <g        transform="matrix(0.64806633,-0.2788548,0.16818039,0.93686099,-200.98894,-47.808193)"        id="g4642">    <path            d="m 440.20856,266.25961 c -39.16023,-7.67958 -80.17727,-33.76204 -100.59282,-70.90366 -4.16677,-7.58052 -5.2479,-30.60899 1.99139,-25.87412 40.2252,61.5016 28.67548,76.28991 41.75993,98.7879 9.21998,15.85324 58.5471,17.81012 -55.01785,0.18647 z"            id="path4603"            style="fill:#82af16;fill-opacity:1;stroke:#4b660e;stroke-width:3.19970417;stroke-linecap:butt;stroke-linejoin:miter;stroke-miterlimit:4;stroke-dasharray:none;stroke-opacity:1" />    <path            d="m 344.18943,163.22156 c -5.66774,1.86015 -18.43904,0.46459 23.71875,2.4375 37.14162,20.41555 63.22667,61.43352 70.90625,100.59375 2.08844,10.64954 14.31962,-14.33429 12.25,-30 -8.93461,1.37847 -15.35192,5.35618 -12.25,14 -39.16023,-7.67958 -80.1782,-33.76463 -100.59375,-70.90625 -1.02052,-1.85662 -1.86407,-4.64367 -2.4375,-7.71875 z"            id="path4630"            style="fill:#729913;fill-opacity:1;stroke:none" />    <path            d="m 342.80802,165.49137 c -0.0208,1.30718 -1.27132,2.19683 -3.25,2.75 0.81557,-0.45421 1.76749,-0.3365 0.5625,2.875 46.31467,57.05668 36.33563,72.92972 51.65625,93.96875 6.66902,9.15821 28.0079,11.48454 42.09375,7.78125 0.61142,16.404 14.12604,-46.22688 -1.28125,-55.1875 -22.49799,-13.08445 -37.27965,-1.5248 -98.78125,-41.75 -0.67868,-0.44389 -1.27576,-0.63353 -1.8125,-0.625 z"            id="path4635"            style="fill:#9ad01a;fill-opacity:1;stroke:none" />    <path            d="m 440.20856,266.25961 c -39.16023,-7.67958 -80.17727,-33.76204 -100.59282,-70.90366 -4.16677,-7.58052 -5.2479,-30.60899 1.99139,-25.87412 40.2252,61.5016 28.67548,76.28991 41.75993,98.7879 9.21998,15.85324 58.5471,17.81012 -55.01785,0.18647 z"            id="path4640"            style="fill:none;stroke:#4b660e;stroke-width:3.19970417;stroke-linecap:butt;stroke-linejoin:miter;stroke-miterlimit:4;stroke-dasharray:none;stroke-opacity:1" /></g>    <g            transform="matrix(1.1215743,-0.25087939,0.24629001,1.0955746,-281.85638,-48.738413)"            id="g4338">        <path                d="m 432.05421,594.13471 c 20.66672,51.25682 92.45487,54.75057 146.02675,57.14426 35.9176,1.60487 -38.01233,124.92247 -2.94012,116.40497 30.09926,-123.9387 -11.83839,-96.7761 16.93163,-132.30611 9.198,-11.35921 28.27238,-22.32843 42.32908,-16.66076 z"                id="path4340"                style="fill:#719913;fill-opacity:1;stroke:#6e9615;stroke-width:3.29249573;stroke-linecap:butt;stroke-linejoin:miter;stroke-miterlimit:4;stroke-dasharray:none;stroke-opacity:1" />        <path                d="m 432.34375,585.78125 c -0.8981,10e-4 -0.0599,1.80181 -0.15625,2.71875 -0.38556,3.66777 -1.49425,7.4627 -3.15625,11.15625 -3.32401,7.3871 -8.79502,14.29569 -14.21875,18.6875 -8.80247,7.1277 -13.4958,9.64773 -17.3125,10.15625 -3.8167,0.50852 7.40334,0.97134 14.09375,2.5625 13.38082,3.18233 38.02793,6.11949 -100.15625,8.96875 -3.88324,0.94307 -6.97512,0.0966 9.84375,2.25 2.86863,2.34658 5.42202,6.33204 7.4375,11.46875 4.03096,10.27342 5.93601,25.05629 5.625,40.0625 0.53157,-0.011 1.06177,-0.0459 1.59375,-0.0625 -12.00207,-0.41994 -23.3091,-2.28734 -31.65625,-5.5625 -5.13671,-2.01548 -9.12217,-4.56887 -11.46875,-7.4375 -2.3466,-2.86863 -3.19307,-5.96051 -2.25,-9.84375 15.08824,-62.12832 12.15108,-86.77543 8.96875,-100.15625 -1.59116,-6.69041 -3.07102,-10.27705 -2.5625,-14.09375 0.50852,-3.8167 3.02855,-8.51003 10.15625,-17.3125 4.39181,-5.42373 11.3004,-10.89474 18.6875,-14.21875 2.85186,-1.28326 5.75746,-2.23589 8.625,-2.78125 -1.53444,-0.34132 -3.12178,-0.53387 -4.75,-0.53125 z"                id="path4342"                style="fill:#9ad01a;fill-opacity:1;stroke:none" />        <path                d="m 432.34375,585.78125 c -9.4,0.84749e-4 -0.0694,1.69862 -0.15625,2.5625 10.39643,23.83567 32.42051,36.74127 58.71875,44.0625 26.93747,7.49919 58.1548,8.9908 84.9375,10.1875 3.95586,0.17676 -7.3715,1.37257 -10.53125,4.40625 -3.15975,3.03368 -5.96468,7.59337 -8.25,13.1875 -4.57065,11.18827 -7.09524,26.43129 -7.40625,41.4375 -0.13217,6.37723 -12.71991,-0.11989 -18.6875,-0.78125 2.07432,9.01712 3.00697,19.79664 2.78125,30.6875 15.00621,-0.31101 30.24923,-2.8356 41.4375,-7.40625 5.59413,-2.28532 10.15382,-5.09025 13.1875,-8.25 3.03368,-3.15975 4.58301,-6.57539 4.40625,-10.53125 -1.1967,-26.7827 -2.68831,-58.00003 -10.1875,-84.9375 -7.49919,-26.93747 -20.84957,-49.40371 -45.8125,-59.46875 -2.39436,-0.9654 -4.9932,-1.41059 -7.6875,-1.40625 z"                id="path4344"                style="fill:#698c11;fill-opacity:1;stroke:none" />        <path                d="m 575.19406,629.1421 c -6.86671,-0.54076 -3.1311,15.56151 -7.5528,18.82987 -3.41839,2.52672 -9.54941,2.65678 10.81056,2.25057 2.28022,8.87271 23.4617,-5.39565 25.01246,-12.07229 0.69089,-2.97459 -4.15697,-5.95431 -8.43316,-6.29107 z"                id="path4346"                style="fill:#9eab26;fill-opacity:1;stroke:none" />    </g>    <path            d="m 278.27981,492.9033 c 10.14875,62.67619 88.83147,84.62545 147.60154,100.7656 39.40276,10.82125 -73.20498,130.55509 -32.2205,129.81162 2.62727,-144.83152 -37.58409,-104.29688 -14.24207,-150.82764 7.46263,-14.87623 26.09973,-31.7776 43.28809,-28.9944 z"            id="path4449"            style="fill:none;stroke:#4b660e;stroke-width:3.7607758;stroke-linecap:butt;stroke-linejoin:miter;stroke-miterlimit:4;stroke-dasharray:none;stroke-opacity:1" />    <g            transform="matrix(0.12769387,1.1427781,-1.2509955,0.11466835,-406.01101,-354.4227)"            id="g4368">        <path                d="m 432.05421,594.13471 c 20.66672,51.25682 92.45487,54.75057 146.02675,57.14426 35.9176,1.60487 -38.01233,124.92247 -2.94012,116.40497 30.09926,-123.9387 -11.83839,-96.7761 16.93163,-132.30611 9.198,-11.35921 28.27238,-22.32843 42.32908,-16.66076 z"                id="path4370"                style="fill:#729913;fill-opacity:1;stroke:#4b660e;stroke-width:3.29171515;stroke-linecap:butt;stroke-linejoin:miter;stroke-miterlimit:4;stroke-dasharray:none;stroke-opacity:1" />        <path                d="m 432.34375,585.78125 c -0.8981,10e-4 -0.0599,1.80181 -0.15625,2.71875 -0.38556,3.66777 -1.49425,7.4627 -3.15625,11.15625 -3.32401,7.3871 -8.79502,14.29569 -14.21875,18.6875 -8.80247,7.1277 -13.4958,9.64773 -17.3125,10.15625 -3.8167,0.50852 7.40334,0.97134 14.09375,2.5625 13.38082,3.18233 38.02793,6.11949 -100.15625,8.96875 -3.88324,0.94307 -6.97512,0.0966 9.84375,2.25 2.86863,2.34658 5.42202,6.33204 7.4375,11.46875 4.03096,10.27342 5.93601,25.05629 5.625,40.0625 0.53157,-0.011 1.06177,-0.0459 1.59375,-0.0625 -12.00207,-0.41994 -23.3091,-2.28734 -31.65625,-5.5625 -5.13671,-2.01548 -9.12217,-4.56887 -11.46875,-7.4375 -2.3466,-2.86863 -3.19307,-5.96051 -2.25,-9.84375 15.08824,-62.12832 12.15108,-86.77543 8.96875,-100.15625 -1.59116,-6.69041 -3.07102,-10.27705 -2.5625,-14.09375 0.50852,-3.8167 3.02855,-8.51003 10.15625,-17.3125 4.39181,-5.42373 11.3004,-10.89474 18.6875,-14.21875 2.85186,-1.28326 5.75746,-2.23589 8.625,-2.78125 -1.53444,-0.34132 -3.12178,-0.53387 -4.75,-0.53125 z"                id="path4372"                style="fill:#9ad01a;fill-opacity:1;stroke:none" />        <path                d="m 432.34375,585.78125 c -9.4,0.84749e-4 -0.0694,1.69862 -0.15625,2.5625 10.39643,23.83567 32.42051,36.74127 58.71875,44.0625 26.93747,7.49919 58.1548,8.9908 84.9375,10.1875 3.95586,0.17676 -7.3715,1.37257 -10.53125,4.40625 -3.15975,3.03368 -5.96468,7.59337 -8.25,13.1875 -4.57065,11.18827 -7.09524,26.43129 -7.40625,41.4375 -0.13217,6.37723 -12.71991,-0.11989 -18.6875,-0.78125 2.07432,9.01712 3.00697,19.79664 2.78125,30.6875 15.00621,-0.31101 30.24923,-2.8356 41.4375,-7.40625 5.59413,-2.28532 10.15382,-5.09025 13.1875,-8.25 3.03368,-3.15975 4.58301,-6.57539 4.40625,-10.53125 -1.1967,-26.7827 -2.68831,-58.00003 -10.1875,-84.9375 -7.49919,-26.93747 -20.84957,-49.40371 -45.8125,-59.46875 -2.39436,-0.9654 -4.9932,-1.41059 -7.6875,-1.40625 z"                id="path4374"                style="fill:#698c11;fill-opacity:1;stroke:none" />        <path                d="m 578.68576,632.99557 c -5.53964,-1.5033 -0.76543,13.96275 -4.53104,18.11239 -2.91116,3.20804 -8.76413,5.29867 -10.67617,1.62254 3.45706,6.64661 21.26955,-1.80043 24.71889,-7.97205 1.53676,-2.74961 -1.53419,-6.29897 -4.98396,-7.23516 z"                id="path4376"                style="fill:#a0ad27;fill-opacity:1;stroke:none" />    </g>    <path            d="m 288.9816,161.40964 c -25.02732,17.19421 17.75544,17.98932 -151.79777,25.10243 -21.23758,6.82744 35.2505,25.42146 38.47735,59.91091 12.95462,-64.60706 26.36478,-146.20509 -21.7541,-185.00569 -3.73215,-3.00943 -8.21498,-4.6618 -13.05438,-5.26943 z"            id="path3065"            style="fill:#56730f;fill-opacity:1;stroke:none" />    <path            d="m 278.69209,512.48475 -10.84101,3.48084 -41.21977,60.45809 c 7.69128,3.77014 17.78012,11.78352 49.53476,15.77151 31.12021,-14.80103 58.56288,-33.87253 79.73107,-56.69058 3.8117,-4.10879 2.84814,-5.36867 6.11189,-9.55435 -11.01463,-14.76916 -20.20808,-29.33526 -37.67554,-35.35061 z M 329.3769,160.79873 c 11.62166,0.0638 -28.00104,1.41533 -52.77264,7.18241 6.39851,11.67053 12.09128,24.56664 16.91607,38.6404 8.63003,25.17356 13.88794,52.13255 16.01752,79.72053 0.84429,-21.11343 0.93938,-42.98491 -1.29806,-63.69819 l -74.40564,-5.56662 z"            id="path4426"            style="fill:#56730f;fill-opacity:1;stroke:none" />    <path            d="m 322.49505,454.39727 c -0.0743,3.22734 -0.70604,6.53196 -1.71819,9.80397 -18.41906,1.62003 15.84343,23.58961 134.41649,21.55959 -20.47367,0.35051 22.78426,33.02633 15.0791,66.09037 -4.53324,-59.24313 -14.58974,-129.16753 -68.21799,-149.65158 -3.05682,-1.16759 -6.30709,-1.63862 -9.628,-1.5622 z"            id="path4526"            style="fill:#56730f;fill-opacity:1;stroke:none" />    <path            d="m 278.2798,492.9033 c 10.01791,62.67319 87.80671,84.60186 145.90915,100.72664 38.95517,10.81096 -72.41251,130.57332 -31.89052,129.81921 2.66489,-143.19725 -37.55676,-103.10978 -14.20278,-149.12133 7.46644,-14.71024 26.10781,-31.42567 43.29535,-28.67834 z"            id="path4463"            style="fill:none;stroke:#4b660e;stroke-width:3.7394774;stroke-linecap:butt;stroke-linejoin:miter;stroke-miterlimit:4;stroke-dasharray:none;stroke-opacity:1" />    <path            d="m 261.94258,223.41024 c 32.39917,56.20536 122.65195,51.96612 189.9758,48.55856 -45.13769,2.28459 -31.60142,147.11746 -133.36219,-11.18613 48.60863,-151.20329 -2.43149,-122.57816 34.52042,-163.35231 11.81383,-13.03578 34.86943,-24.32255 50.28321,-15.43736 z"            id="path4491"            style="fill:none;stroke:#4b660e;stroke-width:3.95588684;stroke-linecap:butt;stroke-linejoin:miter;stroke-miterlimit:4;stroke-dasharray:none;stroke-opacity:1" />    <path            d="m 179.29408,563.90642 -3.558,21.27226 -20.62572,17.99464 -78.6584,23.76516 -41.80659,60.10989 -22.91323,118.83774 -126.67858,-10.5256 -86.18772,-41.14115 -30.989042,-57.88707 c -62.46303,11.56204 122.63323,30.555052 152.23334,113.933612 35.53796,100.1045 17.45789,222.3775 302.98544,-40.79032 12.95475,-9.36124 30.46606,-21.01965 40.65682,-32.32251 40.10831,-44.48521 48.08907,-94.31834 28.25916,-137.12863 z"            id="path4298"            style="fill:#8d9922;fill-opacity:1;stroke:#484e11;stroke-width:3.50635242;stroke-miterlimit:4;stroke-dasharray:none;stroke-opacity:1" />    <path            d="m 183.53671,563.95786 -3.56328,21.50159 -20.63029,18.193 -78.66472,24.03985 -41.82168,60.76578 -22.94273,120.11968 -128.03646,-10.49433 -87.10318,-41.1201 -31.307562,-57.87973 c -19.42471,3.63878 -38.63534,2.04128 56.76386,4.43569 25.28267,15.49657 50.35121,43.833732 59.50083,79.703552 13.40131,45.91094 15.45841,94.61939 17.2683,142.37998 0.35973,45.53616 103.12739,-6.16986 145.59938,-22.06164 37.11289,-14.33713 73.08267,-53.1528 80.81937,-88.20953 6.50818,-19.89346 4.76803,-44.11446 21.70439,-59.63342 6.32671,-2.28381 15.5749,-1.60511 23.41433,-2.33991 -1.71855,-6.59423 -4.02865,-13.09002 -6.98959,-19.41703 z"            id="path4617"            style="fill:#76801d;fill-opacity:1;stroke:none" />    <path            d="m 183.8423,564.20974 c -7.62458,3.32739 -14.59325,7.04753 -20.6228,11.30505 -4.97143,3.46259 -5.44622,9.30497 -6.77929,14.6121 -15.6108,7.99286 -35.50912,7.81149 -52.42019,12.62332 -6.85874,1.30979 -13.85196,3.55334 -20.78796,6.50596 8.22066,4.7213 7.80161,5.85605 9.69012,16.10315 5.83658,-0.50345 0.0956,10.65645 17.50464,-1.8844 20.75263,-36.17599 23.94577,-74.1871 11.43864,-108.41596 z"            id="path4305"            style="fill:#5e6617;fill-opacity:1;stroke:none" />    <path            d="m 196.34979,517.14309 a 59.723267,26.886241 7.4053836 1 1 -5.24515,2.25395"            id="path4580"            style="fill:#330203;fill-opacity:1;stroke:none" />    <path            d="m 261.03599,83.664128 c -53.09463,11.72409 104.06078,30.013232 128.92181,112.941812 29.99306,100.04748 14.44596,220.19233 300.58731,-35.86302 -15.04184,30.6337 -24.33176,57.87508 -30.63044,94.99248 -10.21998,60.2252 -8.17826,124.89842 -180.75748,-8.56765 -46.79716,-14.02924 -80.48203,-36.36019 -98.84017,-62.7068 l -8.27529,-3.35038 z"            id="path4519"            style="fill:#b6c52c;fill-opacity:1;stroke:none" />    <path            d="m 375.71433,228.996 c 0,0 -14.40735,6.59082 -19.33479,3.08819"            id="path4666"            style="fill:#484f11;fill-opacity:1;stroke:#a5b226;stroke-width:3.55249763;stroke-linecap:round;stroke-linejoin:round;stroke-miterlimit:4;stroke-dasharray:none;stroke-opacity:1" />    <path            d="m 381.66836,290.35805 c 0,0 -17.77678,1.4957 21.81256,2.99857"            id="path4668"            style="fill:#484f11;fill-opacity:1;stroke:#a5b226;stroke-width:3.49779534;stroke-linecap:round;stroke-linejoin:round;stroke-miterlimit:4;stroke-dasharray:none;stroke-opacity:1" />    <path            d="m 377.26768,349.57932 c 0,0 18.57665,3.24731 21.80941,8.58392"            id="path4670"            style="fill:#484f11;fill-opacity:1;stroke:#a5b226;stroke-width:3.55249763;stroke-linecap:round;stroke-linejoin:round;stroke-miterlimit:4;stroke-dasharray:none;stroke-opacity:1" />    <path            d="m 312.67773,503.47487 c 0,0 10.4591,12.89072 10.44226,19.28351"            id="path4672"            style="fill:#484f11;fill-opacity:1;stroke:#a5b226;stroke-width:3.55249763;stroke-linecap:round;stroke-linejoin:round;stroke-miterlimit:4;stroke-dasharray:none;stroke-opacity:1" />    <path            d="m 179.79753,564.47437 -3.55799,21.27227 -20.62574,17.99464 -78.65839,23.76515 -41.80658,60.1099 L 347.35947,322.49469 336.83388,195.8161 295.69273,109.62838 237.80564,78.639348 c -62.46304,11.56205 122.63324,30.555032 152.23335,113.933592 35.53796,100.10451 17.4579,222.37751 302.98545,-40.79032 12.95474,-9.36124 30.46606,-21.01965 40.65683,-32.32251 40.1083,-44.48521 48.08906,-94.31834 28.25915,-137.12863 z"            id="path4620"            style="fill:none;stroke:#484e11;stroke-width:3.50635242;stroke-miterlimit:4;stroke-dasharray:none;stroke-opacity:1" />    <g            transform="matrix(0.30686179,1.1104094,-1.217762,0.29993493,-364.85956,-414.00354)"            id="g4358">        <path                d="m 432.05421,594.13471 c 20.66672,51.25682 92.45487,54.75057 146.02675,57.14426 35.9176,1.60487 -38.01233,124.92247 -2.94012,116.40497 30.09926,-123.9387 -11.83839,-96.7761 16.93163,-132.30611 9.198,-11.35921 28.27238,-22.32843 42.32908,-16.66076 z"                id="path4360"                style="fill:#82af16;fill-opacity:1;stroke:#4b660e;stroke-width:3.29171515;stroke-linecap:butt;stroke-linejoin:miter;stroke-miterlimit:4;stroke-dasharray:none;stroke-opacity:1" />        <path                d="m 432.34375,585.78125 c -0.8981,10e-4 -0.0599,1.80181 -0.15625,2.71875 -0.38556,3.66777 -1.49425,7.4627 -3.15625,11.15625 -3.32401,7.3871 -8.79502,14.29569 -14.21875,18.6875 -8.80247,7.1277 -13.4958,9.64773 -17.3125,10.15625 -3.8167,0.50852 7.40334,0.97134 14.09375,2.5625 13.38082,3.18233 38.02793,6.11949 -100.15625,8.96875 -3.88324,0.94307 -6.97512,0.0966 9.84375,2.25 2.86863,2.34658 5.42202,6.33204 7.4375,11.46875 4.03096,10.27342 5.93601,25.05629 5.625,40.0625 0.53157,-0.011 1.06177,-0.0459 1.59375,-0.0625 -12.00207,-0.41994 -23.3091,-2.28734 -31.65625,-5.5625 -5.13671,-2.01548 -9.12217,-4.56887 -11.46875,-7.4375 -2.3466,-2.86863 -3.19307,-5.96051 -2.25,-9.84375 15.08824,-62.12832 12.15108,-86.77543 8.96875,-100.15625 -1.59116,-6.69041 -3.07102,-10.27705 -2.5625,-14.09375 0.50852,-3.8167 3.02855,-8.51003 10.15625,-17.3125 4.39181,-5.42373 11.3004,-10.89474 18.6875,-14.21875 2.85186,-1.28326 5.75746,-2.23589 8.625,-2.78125 -1.53444,-0.34132 -3.12178,-0.53387 -4.75,-0.53125 z"                id="path4362"                style="fill:#9ad01a;fill-opacity:1;stroke:none" />        <path                d="m 432.34375,585.78125 c -9.4,0.84749e-4 -0.0694,1.69862 -0.15625,2.5625 10.39643,23.83567 32.42051,36.74127 58.71875,44.0625 26.93747,7.49919 58.1548,8.9908 84.9375,10.1875 3.95586,0.17676 -7.3715,1.37257 -10.53125,4.40625 -3.15975,3.03368 -5.96468,7.59337 -8.25,13.1875 -4.57065,11.18827 -7.09524,26.43129 -7.40625,41.4375 -0.13217,6.37723 -12.71991,-0.11989 -18.6875,-0.78125 2.07432,9.01712 3.00697,19.79664 2.78125,30.6875 15.00621,-0.31101 30.24923,-2.8356 41.4375,-7.40625 5.59413,-2.28532 10.15382,-5.09025 13.1875,-8.25 3.03368,-3.15975 4.58301,-6.57539 4.40625,-10.53125 -1.1967,-26.7827 -2.68831,-58.00003 -10.1875,-84.9375 -7.49919,-26.93747 -20.84957,-49.40371 -45.8125,-59.46875 -2.39436,-0.9654 -4.9932,-1.41059 -7.6875,-1.40625 z"                id="path4364"                style="fill:#729913;fill-opacity:1;stroke:none" />        <path                d="m 576.54448,630.10817 c -6.7397,-1.16981 -2.08972,17.54978 -6.62466,23.20223 -3.50592,4.36986 -10.16662,7.70596 -11.95447,3.34635 3.23252,7.88239 26.81201,-3.88512 31.88604,-11.01926 2.26058,-3.17843 -1.14035,-6.83136 -5.33746,-7.55987 z"                id="path4366"                style="fill:#b6c52c;fill-opacity:1;stroke:none" />    </g>    <g            transform="matrix(1.1490002,-0.02455372,0.02644373,1.0667135,-238.44459,-121.03096)"            id="g4332">        <path                d="m 432.05421,594.13471 c 20.66672,51.25682 92.45487,54.75057 146.02675,57.14426 35.9176,1.60487 -38.01233,124.92247 -2.94012,116.40497 30.09926,-123.9387 -11.83839,-96.7761 16.93163,-132.30611 9.198,-11.35921 28.27238,-22.32843 42.32908,-16.66076 z"                id="path4296"                style="fill:#82af16;fill-opacity:1;stroke:#4b660e;stroke-width:3.29171515;stroke-linecap:butt;stroke-linejoin:miter;stroke-miterlimit:4;stroke-dasharray:none;stroke-opacity:1" />        <path                d="m 432.34375,585.78125 c -0.8981,10e-4 -0.0599,1.80181 -0.15625,2.71875 -0.38556,3.66777 -1.49425,7.4627 -3.15625,11.15625 -3.32401,7.3871 -8.79502,14.29569 -14.21875,18.6875 -8.80247,7.1277 -13.4958,9.64773 -17.3125,10.15625 -3.8167,0.50852 7.40334,0.97134 14.09375,2.5625 13.38082,3.18233 38.02793,6.11949 -100.15625,8.96875 -3.88324,0.94307 -6.97512,0.0966 9.84375,2.25 2.86863,2.34658 5.42202,6.33204 7.4375,11.46875 4.03096,10.27342 5.93601,25.05629 5.625,40.0625 0.53157,-0.011 1.06177,-0.0459 1.59375,-0.0625 -12.00207,-0.41994 -23.3091,-2.28734 -31.65625,-5.5625 -5.13671,-2.01548 -9.12217,-4.56887 -11.46875,-7.4375 -2.3466,-2.86863 -3.19307,-5.96051 -2.25,-9.84375 15.08824,-62.12832 12.15108,-86.77543 8.96875,-100.15625 -1.59116,-6.69041 -3.07102,-10.27705 -2.5625,-14.09375 0.50852,-3.8167 3.02855,-8.51003 10.15625,-17.3125 4.39181,-5.42373 11.3004,-10.89474 18.6875,-14.21875 2.85186,-1.28326 5.75746,-2.23589 8.625,-2.78125 -1.53444,-0.34132 -3.12178,-0.53387 -4.75,-0.53125 z"                id="path4327"                style="fill:#9ad01a;fill-opacity:1;stroke:none" />        <path                d="m 432.34375,585.78125 c -9.4,0.84749e-4 -0.0694,1.69862 -0.15625,2.5625 10.39643,23.83567 32.42051,36.74127 58.71875,44.0625 26.93747,7.49919 58.1548,8.9908 84.9375,10.1875 3.95586,0.17676 -7.3715,1.37257 -10.53125,4.40625 -3.15975,3.03368 -5.96468,7.59337 -8.25,13.1875 -4.57065,11.18827 -7.09524,26.43129 -7.40625,41.4375 -0.13217,6.37723 -12.71991,-0.11989 -18.6875,-0.78125 2.07432,9.01712 3.00697,19.79664 2.78125,30.6875 15.00621,-0.31101 30.24923,-2.8356 41.4375,-7.40625 5.59413,-2.28532 10.15382,-5.09025 13.1875,-8.25 3.03368,-3.15975 4.58301,-6.57539 4.40625,-10.53125 -1.1967,-26.7827 -2.68831,-58.00003 -10.1875,-84.9375 -7.49919,-26.93747 -20.84957,-49.40371 -45.8125,-59.46875 -2.39436,-0.9654 -4.9932,-1.41059 -7.6875,-1.40625 z"                id="path4320"                style="fill:#729913;fill-opacity:1;stroke:none" />        <path                d="m 575.03491,629.67204 c -8.17974,-1.04397 -2.75784,19.71683 -7.76394,24.87715 -3.87018,3.98939 -11.07305,5.80725 -12.84783,0.19838 3.20891,10.14109 29.90935,-4.95174 33.59759,-12.71189 1.6432,-3.45732 -3.42819,-7.24975 -8.52206,-7.89988 z"                id="path4307"                style="fill:#b6c52c;fill-opacity:1;stroke:none" />    </g>    <path            d="M 4.0618853,310.22815 C 6.3931053,237.5672 39.369347,166.81584 99.048077,121.9028 l -20.526483,13.68209 c -52.02277,30.715222 -84.20027,38.674802 -137.71175,23.163362 5.19319,7.7671 36.76446,17.807402 41.41761,26.352532 56.94825,104.58101 56.53264,238.63189 7.43861,341.96431 l 41.96451,-107.52689 33.00241,-23.97284 6.02701,9.12004 C 105.43919,514.3564 90.289857,500.93171 43.600727,454.44419 7.1435853,418.14449 2.4668453,359.94355 4.0618853,310.22815 Z"            id="path3055"            style="fill:#4f4c09;fill-opacity:1;stroke:#4f4c09;stroke-width:0.99999994;stroke-opacity:1" />    <path            d="m 300.86435,120.05338 c -2.03983,3.84248 -4.39979,7.41289 -6.94117,10.39219 -6.93432,8.12917 -11.67614,12.600182 -15.91013,15.033012 16.72113,16.666082 30.89495,39.119322 36.79778,65.276232 3.13785,11.99604 5.50734,24.18587 7.33308,36.45083 -1.654,-12.74614 -4.6431,-24.79024 -9.4404,-35.66851 -19.07019,-4.08872 -37.33573,-10.61789 -53.64841,-21.33103 -4.74176,-2.98393 -9.14503,-6.33592 -13.21305,-9.98262 z m 19.61539,322.0523 c -0.68915,14.37717 -11.03892,29.9532 -21.28516,38.02134 -11.97048,9.42587 -17.42725,11.67118 -22.96268,11.03458 20.52884,-4.04909 40.34911,-9.42352 57.59115,-16.31431 8.58871,-3.53803 17.09794,-8.38932 25.15566,-14.19203 -6.91952,-5.33539 -14.85352,-9.63179 -24.02812,-12.56888 -3.08431,-0.9874 -6.34496,-1.33165 -9.66277,-1.17262 z"            id="path4412"            style="fill:#5f8010;fill-opacity:1;stroke:none" />    <path            d="m 294.45289,165.28504 c 40.89591,50.71737 129.38888,33.0651 195.36122,19.655 -44.23157,8.99088 -7.95604,150.116312 -130.139032,-32.13987 70.596062,-141.69153 15.88108,-121.48302 58.484272,-155.92168 13.62056,-11.01032 38.09099,-18.51501 51.99976,-7.29967 z"            id="path4505"            style="fill:none;stroke:#4b660e;stroke-width:3.95588684;stroke-linecap:butt;stroke-linejoin:miter;stroke-miterlimit:4;stroke-dasharray:none;stroke-opacity:1" />    <path            d="m 2.4126753,313.48798 c -1.73929,54.82749 -19.3646797,108.62001 -51.3661417,152.19967 -5.33228,6.50791 -6.54598,5.58768 -11.67355,4.81264 16.2257,18.45122 36.991213,50.5895 38.508223,62.55388 2.05528,16.20956 79.45192,-20.548053 89.62734,-32.046273 7.01892,-7.93138 13.9064,-38.951668 15.52822,-61.883332 0.46661,-3.0225197 -0.85419,-9.26351974 -10.69713,-7.6183097 z"            id="path4169"            style="fill:#baba00;fill-opacity:1;stroke:#4f4c09;stroke-width:3.61586857;stroke-linecap:round;stroke-linejoin:round;stroke-miterlimit:4;stroke-dasharray:none;stroke-opacity:1" />    <path            d="m 12.532625,325.16314 c -22.558022,6.15299 -55.583952,9.87842 -65.224922,5.60385 13.61124,6.03487 51.188013,59.33448 53.253563,75.54254 2.06555,16.20806 82.74912,-19.6208 92.92233,-31.166493 2.14525,-2.43464 3.50571,-5.16235 5.48876,-11.03814 5.76882,-12.65435 -25.31671,-36.36592 -35.32807,-46.06992 C 14.537415,429.07217 5.0561353,386.57819 2.8599753,344.80982 c -0.25773,6.77486 -16.85035,-3.26626004 -9.6726497,19.64668 z"            id="path4171"            style="fill:#adbf8f;fill-opacity:1;stroke:#4f4c09;stroke-width:3.62329173;stroke-linecap:round;stroke-linejoin:round;stroke-miterlimit:4;stroke-dasharray:none;stroke-opacity:1" />    <path            d="m 67.492387,146.45966 c -9.06951,9.22705 -18.9548,17.8245 -29.69094,25.63404 l -21.734043,13.9625 c -32.50115,18.539812 -57.66621,28.951672 -84.50373,31.091952 -10.91192,2.10477 14.03998,1.92148 15.32208,3.73022 8.57314,10.8435 16.97383,17.27055 17.79851,23.234552 2.17161,15.70491 82.83691,-24.0972 92.6736,-36.07356 9.83669,-11.97636 19.36222,-74.5974 13.49401,-88.74538 -4.12168,-9.9372 -30.84769,-32.170693 -51.83408,-45.284003 -2.79947,-0.64898 -7.25681,-2.20561 -1.05364,10.60981 z"            id="path4173"            style="fill:#ba9500;fill-opacity:1;stroke:#4f4c09;stroke-width:3.63461328;stroke-linecap:round;stroke-linejoin:round;stroke-miterlimit:4;stroke-dasharray:none;stroke-opacity:1" />    <path            d="m 81.234207,307.2747 c -0.86445,20.69298 -22.579393,77.81232 -33.990843,87.50751 -12.17223,10.34157 -75.78393,20.3967 -90.14936,14.24429 14.36541,6.1524 54.02099,60.41797 56.2142,76.91192 2.19319,16.49396 80.81626,-21.69316 91.1578,-33.86539 10.34156,-12.17222 20.35911,-75.78306 14.2067,-90.1485 -6.15241,-14.36543 -60.41796,-54.020983 -76.91193,-56.214193 -1.03086,-0.13706 -2.23318,-0.18394 -3.61269,-0.12632 z"            id="path4175"            style="fill:#a6a66c;fill-opacity:1;stroke:#4f4c09;stroke-width:3.7541194;stroke-linecap:round;stroke-linejoin:round;stroke-miterlimit:4;stroke-dasharray:none;stroke-opacity:1" />    <path            d="m 107.24781,480.8455 c -0.82253,19.5308 -23.83506,73.42018 -34.79725,82.56654 -11.69299,9.75611 -72.78322,19.18692 -86.59032,13.37429 13.80706,5.81263 51.96952,57.04782 54.08363,72.61656 0.30388,2.23803 0.0758,5.43324 9.25043,-0.54838 l 32.34101,-84.41016 33.46567,-24.7562 6.22779,9.26445 C 161.12007,536.37255 146.42815,531.44577 133.8609,526.49571 113.23674,516.55866 105.499,509.77779 107.24781,480.8455 Z"            id="path4177"            style="fill:#a69400;fill-opacity:1;stroke:#4f4c09;stroke-width:3.57531214;stroke-linecap:round;stroke-linejoin:round;stroke-miterlimit:4;stroke-dasharray:none;stroke-opacity:1" />    <path            d="m 212.67369,194.05904 c -0.81588,19.53096 -20.76883,84.75944 -31.53947,93.91022 -5.70222,4.844622 -11.7537,5.688462 -29.75175,8.558492 7.09995,3.68069 25.46278,14.753782 27.33694,18.195542 25.15622,46.19743 39.28089,98.05583 43.09202,150.54942 8.24667,-19.4527 14.79604,-66.70654 9.72654,-78.54347 -5.80693,-13.55874 -57.02521,-50.98744 -72.59295,-53.0575 -0.97299,-0.12936 -2.10778,-0.17361 -3.40984,-0.11921 z"            id="path4179"            style="fill:#bfac00;fill-opacity:1;stroke:#4f4c09;stroke-width:3.54330707;stroke-linecap:round;stroke-linejoin:round;stroke-miterlimit:4;stroke-dasharray:none;stroke-opacity:1" />    <path            d="m 238.23159,370.60772 c -0.85275,21.13282 -21.48378,79.5 -32.27216,89.42089 -9.55815,8.78956 -52.57502,17.39425 -74.64627,16.48347 2.68571,65.55644 131.55131,-8.27861 189.61918,-31.74457 0.66616,-9.8407 0.28857,-18.08186 -1.58478,-22.13815 -6.25715,-13.5484 -61.60159,-50.88214 -78.44103,-52.92291 -1.05245,-0.12755 -2.28015,-0.16965 -3.68901,-0.1128 z"            id="path4181"            style="fill:#a7aa00;fill-opacity:1;stroke:#4f4c09;stroke-width:3.68568993;stroke-linecap:round;stroke-linejoin:round;stroke-miterlimit:4;stroke-dasharray:none;stroke-opacity:1" />    <g            transform="matrix(1.1490002,-0.02455372,0.02644373,602.84762,1.0667135,151.253)"            id="g4255"            style="fill:#cbbb00;fill-opacity:1">        <path                d="m -246.25815,-144.01711 c -0.69427,-0.0201 -0.0381,1.50708 -0.1875,2.47327 a 1.7718307,1.8451422 0 0 1 -0.26034,0 c -0.44333,47.29732 -15.64272,94.04534 -44.40625,132.25477 l 0.0313,0.0326 c -2.35595,2.79841 -3.62443,3.74078 -4.59375,4.03535 -0.84651,0.25723 -2.18332,0.041 4.09375,0.19526 1.06817,1.08564 2.17764,2.23126 3.28125,3.41703 0.47854,-0.44719 0.97205,-0.91338 1.5946,-1.4375 38.549,-29.04443 85.69919,-44.39639 133.42632,-44.84375 1.79719,-0.27795 3.26765,-0.22708 0.0313,4.45838 0.18012,-1.5913 0.3228,-3.16397 0.45561,-4.6875 a 1.7718307,1.8451422 0 0 1 0,-0.125 c 0.16936,-1.02471 0.006,-2.79726 -0.84612,-3.90625 -0.63905,-0.83174 -1.62711,-1.56467 -3.7099,-1.625 z"                id="path4241"                style="fill:#cbbb00;fill-opacity:1;stroke:none" />        <path                d="m -229.14774,-143.12131 c -0.006,0.75286 -0.0884,1.44869 -0.21967,2.11506 -0.26268,1.33273 -0.74849,2.44196 -1.82015,3.44919 -1.07165,1.00722 -2.81156,1.91206 -5.61734,2.53808 a 1.7793047,1.8449438 0 0 1 -0.0628,0.0325 c -10.388,2.8705 -23.29318,5.29092 -34.67692,6.54044 -9.61894,1.05581 -18.27541,1.16169 -23.00287,0.29285 0.49152,-13.44032 3.53925,-32.06754 7.45154,-46.22542 2.69148,-12.06297 11.38012,-8.5346 17.27848,-8.63 2.95841,36.28871 12.77421,73.0869 39.82353,97.84629 6.17879,5.65178 18.33682,19.22661 29.24786,26.1943 0.1468,-1.94735 -0.44259,-4.31393 -1.72459,-6.99815 -1.77193,-3.71001 -4.79506,-7.87517 -8.26504,-11.98786 -6.93997,-8.22537 -15.62124,-16.22583 -20.01179,-21.02582 -24.30591,-26.55391 -60.55758,-36.25676 -96.60979,-39.19589 -0.0108,1.61003 -3.25373,-0.1638 -4.81585,-0.28244 -0.8126,-0.0618 -1.62252,-0.13164 -2.37539,-0.12552 z"                id="path4243"                style="fill:#cbbb00;fill-opacity:1;stroke:none" />        <path                d="m -391.8613,-88.09817 c -0.0695,0.90147 -0.37874,1.69421 -1.20613,2.52171 -8.23058,8.14038 -17.24964,15.74695 -27.05642,22.69547 l -0.0316,0 -19.88483,12.45098 c -29.9568097,16.72436 -53.01348,26.13137 -77.74644,28.49542 a 1.8482655,1.7872235 0 0 1 -0.19559,0.0316 c -4.85165,0.97677 -7.77955,0.61588 9.55124,0.0316 0.54391,0.19874 0.96563,0.43253 1.33653,0.66195 2.57686,-24.6682 12.09845,-47.7916403 28.6215,-77.38787 l 12.57713,-20.04782 c 7.00818,-9.89097 14.67674,-18.98579 22.8846,-27.28461 2.9819,-2.98149 6.84515,-1.4182 9.26731,-0.74975 10.73023,15.15521 27.59573,33.66402 38.27016,41.16706 -0.17886,-2.83132 -0.51037,-5.07123 -1.00869,-6.45443 -1.38997,-3.85826 -7.86972,-11.77029 -16.17052,-19.81964 -8.22544,-7.97627 -18.23382,-16.37103 -27.07695,-22.65567 -1.2383,-0.35167 -2.55976,-0.77317 -3.78258,-0.84755 -0.32866,-0.0199 -0.64516,-0.0232 -0.94565,0 z"                id="path4245"                style="fill:#cbbb00;fill-opacity:1;stroke:none" />        <path                d="m -255.96454,-70.00066 c -0.16919,8.3804 -4.96656,25.49892 -11.0585,41.25411 -3.04597,7.87759 -6.41082,15.4795 -9.63478,21.58722 -3.22397,6.10775 -6.45695,10.77069 -8.60841,12.54841 -2.29499,1.89632 -8.00929,4.32555 -15.26335,6.4563 -7.25408,2.13075 -16.1205597,4.09235 -25.03059967,5.59546 -8.91003003,1.50312 -17.87658033,2.54696 -25.42790033,2.91362 -5.88861,0.28592 -10.9558,0.0949 14.23697,0.49663 0.80578,-22.86104 8.38551,-59.99801 15.49514,-68.60235 8.66195,-10.48305 58.76302,-29.60013 76.78033,-29.96387 1.20114,-0.0242 0.048,2.25142 0.19866,3.14538 2.14275,12.71409 32.6661,50.77982 48.96857,62.64269 -0.18808,-2.8691 -0.53789,-5.15554 -1.0595,-6.55562 -1.03932,-2.78963 -4.81622,-7.7756 -10.03211,-13.24371 -5.21587,-5.46811 -11.87558,-11.56492 -18.83915,-17.31613 -6.96357,-5.75121 -14.23851,-11.14115 -20.59395,-15.23026 -6.35544,-4.08909 -11.9299,-6.8223 -14.86605,-7.31714 -0.75137,-0.12661 -1.70783,-0.22101 -2.81429,-0.19866 z"                id="path4247"                style="fill:#cbbb00;fill-opacity:1;stroke:none" />        <path                d="m -101.07468,-42.08841 c -0.0111,1.40452 -0.0646,2.87852 -0.12727,4.4375 -0.0104,9e-5 -0.0209,9e-5 -0.0313,0 -0.16255,7.90874 -5.48604,24.35264 -11.34809,39.23088 -2.93101,7.43912 -7.46829,14.34513 -10.56941,20.11287 -3.10112,5.76774 -6.20501,10.16592 -8.27244,11.84375 -2.2053497,1.78977 -7.6997697,4.08555 -14.6676797,6.09375 -6.96791,2.0082 -15.4635503,3.83513 -24.0219003,5.25 -8.55834,1.41487 -17.21364,2.43803 -24.46733,2.78125 -5.65651,0.26765 -10.50409,0.066 13.64953,0.5 0.75425,-21.96126 7.88458,-57.6261503 14.59375,-65.89318033 8.1756,-10.07392967 55.4945,-30.44493967 72.5,-30.79445967 24.07189,-0.96918 5.91566,30.40291 23.3810797,38.09375 -0.97345,-3.1294597 -1.93719,-6.1323897 -2.90625,-8.9724197 -4.05265,-9.59929 -7.39767,-15.41033 -12.5,-18.74026 -3.84569,-2.50981 -8.93739,-5.77949 -16.5,-6.04077 -1.26043,-0.0436 -2.59548,-0.0748 -4,-0.0636 z"                id="path4249"                style="fill:#cbbb00;fill-opacity:1;stroke:none" />        <path                d="m -50.60789,357.10593 c -0.16034,7.9428 -4.52099,26.62685 -10.09375,43.96875 -2.78638,8.67095 -5.89661,17.06571 -8.875,23.75 -2.97839,6.68429 -6.04978,11.72146 -7.9375,13.28125 -2.42212,2.00136 -4.79014,3.14564 -8.8125,4.21875 -3.89615,1.03944 -9.49763,1.95793 -17.46875,3.3125 1.07122,0.49344 2.44391,1.15045 3.90625,1.875 1.84739,-10.41449 3.1311,-15.2403 6.625,-19.46875 8.17556,-9.89437 65.30694,-27.18796 82.3125,-27.53125 1.1337,-0.0229 0.0453,2.12498 0.1875,2.96875 2.02453,12.01259 30.90621,47.96813 46.28125,59.125 -0.18613,-2.73013 -0.5361,-4.92096 -1.03125,-6.25 -0.98095,-2.63297 -4.51452,-7.33895 -9.4375,-12.5 -4.92298,-5.16105 -11.23997,-10.91549 -17.8125,-16.34375 -6.57253,-5.42826 -13.4077,-10.51553 -19.40625,-14.375 -5.99855,-3.85947 -11.29123,-6.47045 -14.0625,-6.9375 -0.70919,-0.11955 -1.58068,-0.17735 -2.625,-0.15625 z"                id="path4251"                style="fill:#cbbb00;fill-opacity:1;stroke:none" />        <path                d="m -78.35789,203.97733 c -0.15965,8.5571 -4.71122,26.0739 -10.46875,42.16349 -2.87876,8.04479 -6.04792,15.77409 -9.09375,22.01156 -3.04583,6.23748 -6.094,10.99897 -8.125,12.81473 -1.79901,1.60835 -5.83755,3.66493 -11.0625,5.51134 -5.22495,1.84642 -11.66283,3.60556 -18.46875,5.1056 -12.94122,2.85227 -27.14712,4.69754 -37.21875,4.73367 0.0254,0.3951 0.0384,0.78825 0.0625,1.18341 2.11883,-21.2655 8.82897,-48.98813 15.18156,-56.09375 8.8458,-9.89437 60.04402,-27.96921 78.44368,-28.3125 1.22664,-0.0229 0.0453,2.26546 0.1875,3.17832 2.0196,12.96588 30.75339,51.76604 46.15625,63.93837 -0.17584,-2.67026 -0.52371,-4.82395 -1.04817,-6.125 -1.06138,-2.63297 -4.88463,-7.33895 -10.21121,-12.5 -5.32657,-5.16105 -12.16144,-10.91549 -19.2728,-16.34375 -7.11135,-5.42826 -14.50688,-10.51553 -20.9972,-14.375 -6.49033,-3.85947 -12.21692,-6.4392 -15.21537,-6.90625 -0.76727,-0.1195 -1.71025,-0.2086 -2.8402,-0.1875 z"                id="path4253"                style="fill:#cbbb00;fill-opacity:1;stroke:none" />    </g>    <g            transform="matrix(1.1422221,-0.02410683,0.02628773,1.0472986,-226.57859,-127.50544)"            id="g4264"            style="fill:#998a04;fill-opacity:1">        <path                d="m 365.21875,410.21875 c 6.2899,6.37595 5.10952,4.85952 5.21124,4.86942 19.37795,6.11315 50.09692,4.59165 -61.54984,3.78449 -10.266,7.50809 -42.22072,-2.93351 -58.32571,-7.24425 -29.49052,-10.49685 -58.77052,-24.56871 -80.41542,-43.32933 -2.26038,0.39606 -4.40065,0.76551 -7.25,1.25 6.73176,3.05953 24.16976,12.32493 15.28125,26 24.56662,39.68165 38.92215,84.50794 43.625,130.09375 7.56295,-18.04862 13.69473,-60.91703 9.52197,-72.11711 -1.67793,-4.5037 1.47319,-6.71866 -6.82375,-14.49968 z"                id="path4096"                style="fill:#998a04;fill-opacity:1;stroke:none" />        <path                d="m 143.28125,478.78125 c -18.59097,2.85376 -38.21691,8.09066 -44.03125,13.09375 -10.55398,9.08142 -30.36901,64.53483 -28.09375,78.59375 -9.40412,-1.52194 -32.87856,-18.20973 -48.90625,-32.9375 -0.45317,0.61487 -0.91496,1.23317 -1.375,1.84375 -4.85581,5.76775 -6.0227,4.97776 -10.84375,4.40625 15.60075,15.72511 35.72687,43.24804 37.40625,53.625 2.27526,14.05892 69.54358,-17.53977 78.625,-28.09375 6.2643,-7.28005 12.88009,-36.17387 14.75,-57.625 0.13944,-0.84365 0.1332,-1.97829 -0.15625,-3.09375 z"                id="path4106"                style="fill:#998a04;fill-opacity:1;stroke:none" />        <path                d="m 178.40625,473.78125 c -13.61912,1.83518 -26.06383,2.24637 -31.3125,0.21875 12.88336,4.97697 49.2464,50.5676 51.53125,64.625 2.28485,14.0574 72.38829,-16.589 81.46875,-27.1875 1.91481,-2.23491 3.15737,-4.78737 5,-10.25 1.27919,-2.84701 0.66368,-6.34894 -1.09375,-10.15625 -1.47774,0.74185 -2.62534,1.49622 -3.6875,2.40625 -10.5985,9.08046 -29.47235,67.3801 -27.1875,81.4375 C 242.2464,525.66135 205.88336,480.03947 475.0625,193 c -1.13956,-2.94985 -1.50726,-8.16816 -1.28125,-14.59375 z"                id="path4104"                style="fill:#998a04;fill-opacity:1;stroke:none" />        <path                d="m 255.46875,377.8125 c -20.486,2.61381 -43.36643,8.01216 -49.84375,13.1875 -11.00929,8.79635 -34.18588,67.72615 -31.8125,81.34375 -5.17134,-0.9013 -10.58307,-8.92096 -19.84375,-17.1875 -0.99139,-0.79448 -2.77098,-2.33187 -3.375,-6 -2.74078,0.43973 -5.50926,0.82879 -8.28125,1.09375 -10.17868,2.04935 13.19722,1.38982 14.4375,2.9375 8.26654,9.26068 16.25495,14.67241 17.15625,19.84375 2.37338,13.6176 72.5474,-20.77196 81.34375,-31.78125 6.66913,-8.34691 13.77768,-43.98681 14.71875,-66.5625 z"                id="path4102"                style="fill:#998a04;fill-opacity:1;stroke:none" />        <path                d="m 283.59375,532.96875 c -20.92369,2.71206 -44.46611,8.42994 -51.09375,13.90625 -11.18192,9.23943 -32.19186,65.66521 -29.78125,79.96875 -14.30354,-2.41062 -60.71716,-40.75123 -65.78125,-54.34375 -1.21328,-3.25655 -1.55023,-9.15411 -1.25,-16.375 -14.38377,1.87169 -27.55576,2.34451 -33.09375,0.28125 13.59252,5.06409 51.90188,51.47771 54.3125,65.78125 2.41061,14.30354 70.72932,-18.56808 79.96875,-29.75 7.02902,-8.50679 14.49917,-44.89584 15.4375,-67.8125 z"                id="path4100"                style="fill:#998a04;fill-opacity:1;stroke:none" />        <path                d="m 372.25,539.8125 c 1.09133,0.5704 2.18406,1.15161 3.25,1.75 10.6115,5.957 19.80028,20.7296 31.6875,18.125 -7.61011,1.66744 -10.26932,11.98552 -13.59375,19.03125 -11.00732,37.03792 -21.37561,80.79836 -19.90625,118.96875 -6.80906,0.85564 -13.20011,1.30633 -18.375,1.21875 3.93005,56.97122 114.61292,-4.9217 165.59375,-25.65625 0.7765,-9.206 0.61084,-16.90901 -0.9375,-20.75 -3.50387,-8.69213 -26.37367,-28.0852 -45.3125,-40.40625 z"                id="path3999"                style="fill:#998a04;fill-opacity:1;stroke:none" />    </g>    <path            d="m 111.20638,504.68485 c 15.31702,12.75502 50.29567,23.99945 68.31464,18.35262 l 8.4645,-6.18722 6.10786,9.21179 c -5.43282,-17.78091 -10.32195,-32.20605 -15.23923,-44.54325 -5.01104,-10.27643 -5.97521,-14.50054 -8.46745,-17.95131 -1.80888,-2.50459 -3.59629,-5.50571 -12.32223,-5.74072 z m 61.79599,10.72667 c -0.003,1.75019 -6.6847,6.21839 -16.51762,19.65054 -29.17437,27.88884 -62.28703,28.61373 -82.17887,59.49228 5.14689,8.5369 8.77924,16.06211 9.3829,20.57259 0.29773,2.22471 0.042,5.40606 9.20089,-0.57194 l 32.19881,-82.86657 15.1729,-11.08971 c -6.53265,-0.41194 8.81033,-13.56413 1.99763,-13.55117 z"            id="path4098"            style="fill:#998a04;fill-opacity:1;stroke:none" />    <g            transform="matrix(1.1490002,-0.02455372,0.02644373,1.0667135,-229.69629,-133.43128)"            id="g4273"            style="fill:none">        <path                d="m 138.99379,469.77488 c -0.44736,47.72712 -15.80172,94.87204 -44.84615,133.42104 -4.85581,5.76775 -6.01285,4.99157 -10.8339,4.42006 15.60075,15.72511 35.75028,43.26518 37.42966,53.64214 2.27526,14.05892 69.52356,-17.53947 78.60498,-28.09345 6.2643,-7.28005 12.87655,-36.19638 14.74646,-57.64751 0.4664,-2.82193 -0.55755,-8.698 -9.15248,-7.36875 z"                id="path4275"                style="fill:none;stroke:#4f4c09;stroke-width:3.26522923;stroke-linecap:round;stroke-linejoin:round;stroke-miterlimit:4;stroke-dasharray:none;stroke-opacity:1" />        <path                d="m 148.72757,479.72802 c -21.00334,5.80391 -52.92154,11.70868 -60.99246,6.18054 15.80904,10.82834 41.19509,40.59176 51.52557,64.64524 5.62019,13.08604 67.88578,-16.33561 81.45355,-27.19807 2.29743,-1.83934 3.15284,-4.76134 4.99547,-10.22397 5.27144,-11.73225 -21.29389,-34.61943 -29.80808,-43.92759 -24.75936,-27.04932 -61.53338,-36.84925 -97.82208,-39.80766 -0.0954,5.89836 -14.59207,-3.42371 -8.63926,17.28356 z"                id="path4277"                style="fill:none;stroke:#4f4c09;stroke-width:3.2719326;stroke-linecap:round;stroke-linejoin:round;stroke-miterlimit:4;stroke-dasharray:none;stroke-opacity:1" />        <path                d="m 196.36928,323.1804 c -8.29882,8.20785 -17.37557,15.88437 -27.26653,22.89255 l -20.0629,12.5806 c -30.05257,16.77782 -53.40677,26.33855 -78.50636,28.73765 -10.17868,2.04935 13.19637,1.3903 14.43665,2.93798 8.26654,9.26068 16.27626,14.68312 17.17756,19.85446 2.37338,13.6176 72.53908,-20.79189 81.33543,-31.80118 8.79635,-11.00928 18.33608,-69.47744 13.51482,-82.86011 -3.38632,-9.39966 -26.18906,-30.80792 -44.18174,-43.54714 -2.42216,-0.66844 -6.26825,-2.22306 -0.75843,9.25015 z"                id="path4279"                style="fill:none;stroke:#4f4c09;stroke-width:3.28215623;stroke-linecap:round;stroke-linejoin:round;stroke-miterlimit:4;stroke-dasharray:none;stroke-opacity:1" />        <path                d="m 212.71263,462.79198 c -0.36374,18.01732 -19.47811,68.138 -29.96115,76.79995 -11.18192,9.23945 -70.56687,19.25968 -84.15941,14.19557 13.59252,5.06409 51.91848,51.47359 54.3291,65.77713 2.41061,14.30354 70.73326,-18.58297 79.97269,-29.76489 9.23943,-11.18191 19.22695,-70.56686 14.16285,-84.15941 -2.17587,-5.84024 -13.21111,-14.7387 -25.17845,-24.86836 -15.88539,-13.44607 -33.97044,-27.94682 -40.59869,-29.46074 -0.89396,-0.15065 -1.93887,-0.2205 -3.14001,-0.19626 z"                id="path4281"                style="fill:none;stroke:#4f4c09;stroke-width:3.3900733;stroke-linecap:round;stroke-linejoin:round;stroke-miterlimit:4;stroke-dasharray:none;stroke-opacity:1" />        <path                d="m 240.82924,613.2536 c -0.11858,5.76955 -5.79018,15.29683 -9.33835,25.33522 -6.90994,19.54942 -14.82882,41.78112 -21.48492,47.18292 -10.74552,8.72058 -67.78141,18.14727 -80.84348,13.36754 13.06204,4.77973 49.92366,48.58311 52.24021,62.08343 0.333,1.94068 0.18818,4.72464 8.05757,-0.31433 l 29.82228,-78.39176 29.60617,-22.47398 6.03498,7.93408 c -4.3957,-17.08821 -8.38714,-30.96023 -12.44138,-42.84201 -8.2309,-19.53835 -13.97438,-26.93454 -39.17647,-25.91986 z"                id="path4283"                style="fill:none;stroke:#4f4c09;stroke-width:3.22860575;stroke-linecap:round;stroke-linejoin:round;stroke-miterlimit:4;stroke-dasharray:none;stroke-opacity:1" />        <path                d="m 333.42513,361.67834 c -0.20192,6.39653 -7.43382,29.1676 -14.40765,49.94422 -4.88283,14.54705 -9.04389,29.00925 -13.1186,32.37612 -5.23829,4.32832 -10.8901,5.18351 -27.69171,8.0404 6.73176,3.05953 24.17582,12.32391 26.00606,15.28023 24.56662,39.68165 38.91917,84.50845 43.62202,130.09426 7.56295,-18.04862 14.20614,-62.18247 10.03338,-73.38255 -4.77974,-12.82925 -48.58311,-49.003 -62.08343,-51.27826 -0.84377,-0.14219 -1.83033,-0.22101 -2.9637,-0.18523 z"                id="path4285"                style="fill:none;stroke:#4f4c09;stroke-width:3.19970417;stroke-linecap:round;stroke-linejoin:round;stroke-miterlimit:4;stroke-dasharray:none;stroke-opacity:1" />        <path                d="m 361.17898,514.73942 c -0.15633,8.37898 -6.79833,21.44992 -11.86119,36.33211 -6.05484,17.7981 -11.05976,37.28026 -16.44836,42.0978 -8.76608,7.83709 -48.88574,16.18327 -69.58531,15.83294 3.93005,56.97122 114.59711,-4.92001 165.57794,-25.65456 0.7765,-9.206 0.61306,-16.93581 -0.93528,-20.7768 -5.17158,-12.82926 -52.56603,-49.00301 -67.17314,-51.27826 -0.91293,-0.14221 -1.98002,-0.20813 -3.20667,-0.18524 z"                id="path4287"                style="fill:none;stroke:#4f4c09;stroke-width:3.32827973;stroke-linecap:round;stroke-linejoin:round;stroke-miterlimit:4;stroke-dasharray:none;stroke-opacity:1" />    </g>    <path            d="m 324.13596,454.82486 c 20.69004,59.40154 97.17507,65.17853 154.25759,69.24428 38.27135,2.7259 -43.85169,142.60262 -6.21445,133.67716 31.5409,-133.00302 -15.97853,-102.91932 16.20585,-141.58044 10.28958,-12.36026 31.93672,-24.56567 48.22703,-18.8916 z"            id="path4477"            style="fill:none;stroke:#4b660e;stroke-width:3.64519858;stroke-linecap:butt;stroke-linejoin:miter;stroke-miterlimit:4;stroke-dasharray:none;stroke-opacity:1" />    <path            d="m 158.54194,551.16381 c -1.64498,29.49682 -25.07426,53.41836 -51.53891,57.90946 -27.93294,9.23153 -62.26931,27.18308 -85.60869,47.98087 -17.71973,21.13064 -21.96346,62.24889 -27.32784,89.11034 -5.08168,36.19223 -4.01409,72.96647 -3.50286,109.4184 -42.21326,-2.69676 -86.9963,-7.27141 -121.91057,-31.52327 -25.823232,-17.20093 -40.958382,-45.25257 -45.728922,-73.99456 -6.14198,52.04634 -104.10908,9.15453 124.30534,70.948992 13.38999,46.40299 15.44624,95.61786 17.24426,143.89333 0.34843,46.02741 104.25648,-6.19921 147.1907,-22.10161 37.5169,-14.34643 73.86335,-53.18562 81.69225,-88.24449 6.58333,-19.8952 4.84501,-44.11659 21.96797,-59.63986 14.24329,-5.08972 4.44131,43.20425 38.21392,-19.42362 -4.35538,-11.5492 -20.10042,-14.94131 -31.8486,-14.60049 z"            id="path4291"            style="color:#000000;font-style:normal;font-variant:normal;font-weight:normal;font-stretch:normal;font-size:medium;line-height:normal;font-family:Sans;-inkscape-font-specification:Sans;text-indent:0;text-align:start;text-decoration:none;text-decoration-line:none;letter-spacing:normal;word-spacing:normal;text-transform:none;direction:ltr;block-progression:tb;writing-mode:lr-tb;baseline-shift:baseline;text-anchor:start;display:inline;overflow:visible;visibility:visible;fill:#8f8f09;fill-opacity:1;stroke:#4f4c09;stroke-width:3.54411793;stroke-miterlimit:4;stroke-dasharray:none;stroke-opacity:1;marker:none;enable-background:accumulate" />    <path            d="m 158.54161,551.17823 c -1.64467,29.4833 -25.06282,53.38632 -51.52742,57.87509 -27.93283,9.22702 -62.27988,27.17734 -85.61903,47.96536 -17.7195,21.1208 -21.9671,62.22721 -27.33121,89.07631 -5.0813,36.17562 -3.99544,72.91294 -3.48382,109.34821 -40.87542,-2.61291 -84.18748,-6.96948 -118.58095,-29.28927 1.42195,1.83149 2.80341,3.70915 4.10543,5.66292 24.25222,34.89857 28.8178,79.67148 31.515,121.86546 0.51163,36.43526 1.59747,73.17258 109.3482,-3.48382 26.84911,-5.36411 67.95552,-9.61171 89.07632,-27.33121 20.78801,-23.33914 38.73833,-57.68621 47.96534,-85.61903 4.48878,-26.4646 28.39179,-49.88275 57.87511,-51.52742 6.31848,-0.18331 0.74078,13.78104 3.4082,20.01698 -6.36848,-7.65563 -19.07234,-10.02637 -28.96441,-9.73936 z M 220.99709,79.336208 c -5.06161,42.8756 -72.48372,21.27089 107.34807,32.468562 -43.905412,-33.67849 -61.509292,-88.27443 -30.846622,-99.31411 -0.62621,-2.66353 -1.17665,-5.35012 -1.62194,-8.03396 z"            id="path3066"            style="color:#000000;font-style:normal;font-variant:normal;font-weight:normal;font-stretch:normal;font-size:medium;line-height:normal;font-family:Sans;-inkscape-font-specification:Sans;text-indent:0;text-align:start;text-decoration:none;text-decoration-line:none;letter-spacing:normal;word-spacing:normal;text-transform:none;direction:ltr;block-progression:tb;writing-mode:lr-tb;baseline-shift:baseline;text-anchor:start;display:inline;overflow:visible;visibility:visible;fill:#beaf00;fill-opacity:1;stroke:none;stroke-width:3.54330707;marker:none;enable-background:accumulate" />    <path            d="m 158.54161,551.17821 c -1.64467,29.4833 -25.07369,53.39366 -51.53829,57.88243 -27.93283,9.22701 -62.26901,27.16999 -85.60816,47.95801 -17.7195,21.1208 -21.9628,62.22021 -27.3269,89.06932 -5.08129,36.17562 -4.01331,72.93304 -3.5017,109.36831 -42.19399,-2.6972 -86.95659,-7.27233 -121.85516,-31.52454 -25.811592,-17.2012 -40.940112,-45.25299 -45.708782,-73.99503 -6.14144,52.02249 -104.10896,9.14925 124.30606,70.917862 13.39048,46.3819 15.44723,95.5743 17.24577,143.8277 0.34892,46.00637 104.20874,-6.19811 147.12315,-22.10005 37.4996,-14.34604 73.82902,-53.18484 81.65397,-88.24362 6.58011,-19.89511 4.84232,-44.11653 21.9573,-59.63961 17.38094,-7.49588 4.44177,43.18453 38.19623,-19.42321 -4.3535,-11.54924 -20.09139,-14.94152 -31.8342,-14.60082 z"            id="path4294"            style="color:#000000;font-style:normal;font-variant:normal;font-weight:normal;font-stretch:normal;font-size:medium;line-height:normal;font-family:Sans;-inkscape-font-specification:Sans;text-indent:0;text-align:start;text-decoration:none;text-decoration-line:none;letter-spacing:normal;word-spacing:normal;text-transform:none;direction:ltr;block-progression:tb;writing-mode:lr-tb;baseline-shift:baseline;text-anchor:start;display:inline;overflow:visible;visibility:visible;fill:none;stroke:#4f4c09;stroke-width:3.54330707;stroke-miterlimit:4;stroke-dasharray:none;stroke-opacity:1;marker:none;enable-background:accumulate" />    <path            d="m 1.7788653,684.9569 c -0.88504,30.18659 -13.6674397,52.1133 -31.1365347,67.65269 -4.754857,4.22962 -10.256267,7.59484 -15.478867,10.99541 -25.93839,11.50622 -58.365313,12.30646 -86.642083,20.17433 -24.7064,6.87442 -45.83695,20.63957 -62.03895,32.07998 -4.97142,3.46259 -5.42938,9.31863 -6.76244,14.62577 -15.6108,7.99286 -35.5236,7.81006 -52.43465,12.62188 -6.85876,1.3098 -13.86023,3.53239 -20.79623,6.48502 8.22066,4.72132 7.81055,5.86713 9.69907,16.11423 C 273.14943,694.31577 164.4978,850.33555 43.337097,771.12009 17.874805,749.53678 3.1165053,724.7501 1.8439553,692.80897 c -2.68672,-0.10704 -5.29189,-0.14015 -7.85207,-0.0651 z"            id="path3906"            style="fill:#82af16;fill-opacity:1;stroke:#4b660f;stroke-width:3.4764514;stroke-miterlimit:4;stroke-dasharray:none;stroke-opacity:1" />    <path            d="m 201.4304,545.65063 c -0.66352,2.61375 -5.16488,-0.38997 -0.23986,7.77896 -15.89376,10.05017 -35.40461,8.98692 -52.33943,14.72838 -6.82123,1.47013 -13.84946,4.15542 -20.86719,7.81991 1.97203,1.70115 4.02326,4.36366 5.08687,5.68403 5.66343,-9.25137 8.40316,-19.25247 10.34799,-28.2709 5.68667,-16.76418 4.55691,-34.45678 14.29523,-50.26241 z"            id="path3917"            style="color:#000000;font-style:normal;font-variant:normal;font-weight:normal;font-stretch:normal;font-size:medium;line-height:normal;font-family:Sans;-inkscape-font-specification:Sans;text-indent:0;text-align:start;text-decoration:none;text-decoration-line:none;letter-spacing:normal;word-spacing:normal;text-transform:none;direction:ltr;block-progression:tb;writing-mode:lr-tb;baseline-shift:baseline;text-anchor:start;display:inline;overflow:visible;visibility:visible;fill:#4b660f;fill-opacity:1;stroke:none;stroke-width:3.54411793;marker:none;enable-background:accumulate" />    <path            d="m 2.2220253,698.33142 c 6.24078,20.16584 18.9548297,37.22523 37.1702317,52.66566 119.285163,77.98917 -226.442203,72.00844 -242.726823,227.33247 3.11005,2.68991 3.26543,5.33228 4.63346,12.75514 C 273.13426,694.29946 164.5004,850.31855 43.339697,771.1031 19.364775,750.78059 4.8947953,727.6324 2.2220253,698.33142 Z"            id="path3922"            style="fill:#729913;fill-opacity:1;stroke:none" />    <path            d="m 85.028137,675.67153 a 29.350119,35.159947 86.269025 1 1 -6.65875,58.34242 29.350119,35.159947 86.269025 1 1 58.34242,-6.65875 z"            id="path4254"            style="fill:#ffffff;fill-opacity:1;stroke:#4b660f;stroke-width:3.83386207;stroke-miterlimit:4;stroke-dasharray:none;stroke-opacity:1" />    <path            d="m 3.7528153,684.1596 c -1.37201,28.0387 -12.2944497,50.35732 -28.4458687,65.38872 -5.272463,4.90682 -12.175543,7.32913 -18.072463,11.16881 -23.56212,10.45209 -57.841923,12.3618 -85.998033,20.45189 -29.92164,8.59737 -53.30201,23.29367 -62.66963,31.79326 46.6155,-59.25131 38.83485,-90.21416 65.17256,-150.136633 C 27.738871,634.24447 9.1760853,654.25614 3.7528153,684.1596 Z"            id="path3928"            style="fill:#9ad01a;fill-opacity:1;stroke:none" />    <path            d="m 1.7788653,684.9569 c -0.90926,31.01297 -12.3347097,52.60517 -30.5152027,68.23652 -4.332179,3.72476 -11.402889,7.35304 -16.100199,10.41158 -24.15932,10.71704 -55.998183,11.98806 -82.614123,19.24324 -26.92776,7.34018 -48.59306,20.67258 -66.06691,33.01107 -4.97142,3.46259 -5.42938,9.31863 -6.76244,14.62577 -15.6108,7.99286 -35.5236,7.81006 -52.43465,12.62188 -6.85876,1.3098 -13.86023,3.53239 -20.79623,6.48502 8.22066,4.72132 7.81055,5.86713 9.69907,16.11423 C 273.14943,694.31577 164.4978,850.33555 43.337097,771.12009 17.874805,749.53678 3.1165053,724.7501 1.8439553,692.80897 c -2.68672,-0.10704 -5.29189,-0.14015 -7.85207,-0.0651 z"            id="path3933"            style="fill:none;stroke:#4b660f;stroke-width:3.4764514;stroke-miterlimit:4;stroke-dasharray:none;stroke-opacity:1" />    <g            transform="matrix(1.2761709,-0.13937872,0.1456725,1.3932332,-432.02536,-113.29666)"            id="g4256">        <path                d="m 171.08481,262.7499 a 94.447938,72.433755 0 1 1 -144.86751,0 94.447938,72.433755 0 1 1 144.86751,0 z"                transform="matrix(0.15122638,0,0,790.77196,0.12712626,212.17379)"                id="path1511"                style="fill:#7d7dc0;fill-opacity:1;fill-rule:nonzero;stroke:url(#linearGradient5471);stroke-width:0.95608622;stroke-miterlimit:4;stroke-opacity:1" />        <path                d="m 191.67871,471.52956 a 75.2743,66.752678 0 1 1 -133.50535,0 75.2743,66.752678 0 1 1 133.50535,0 z"                transform="matrix(0.10902489,0,0,775.25928,0.10442635,213.56524)"                id="path1512"                style="fill:#000000;fill-opacity:1;stroke:#000000;stroke-width:1.24240124;stroke-miterlimit:4;stroke-opacity:1" />        <path                d="m 149.07062,470.10928 a 48.289173,58.941193 0 1 1 -117.88238,0 48.289173,58.941193 0 1 1 117.88238,0 z"                transform="matrix(0.09447848,0,0,776.6351,0.11871187,211.78483)"                id="path1513"                style="fill:#ffffff;fill-opacity:0.85384611;stroke:#000000;stroke-width:1.25174344;stroke-miterlimit:4;stroke-opacity:1" />        <path                d="m 147.65036,426.08094 a 17.043241,18.46351 0 1 1 -36.92702,0 17.043241,18.46351 0 1 1 36.92702,0 z"                transform="matrix(0.1986577,0,0,734.45763,0.21507856,197.83328)"                id="path1514"                style="fill:#ffffff;fill-opacity:0.90769217;stroke:#000000;stroke-width:0;stroke-miterlimit:4;stroke-opacity:1" />    </g>    <path            d="m 103.21714,784.52015 a 33.338212,25.965136 5.6898362 1 1 -51.87974,-2.74476 33.338212,25.965136 5.6898362 1 1 2.74476,51.87974 z"            id="path4272"            style="fill:#ffffff;fill-opacity:1;stroke:#4b660f;stroke-width:3.66586709;stroke-miterlimit:4;stroke-dasharray:none;stroke-opacity:1" />    <path            d="m 102.76471,771.29511 a 14.77989,12.406007 5.8834553 0 1 -24.7825,-1.36895 14.77989,12.406007 5.8834553 1 1 1.36895,24.7825 z"            id="path1517"            style="fill:#7d7dc0;fill-opacity:1;fill-rule:nonzero;stroke:none" />    <path            d="m 102.10542,766.98151 a 9.6763469,8.2422682 6.0921742 0 1 -16.46535,-0.90953 9.6763469,8.2422682 6.0921742 1 1 0.90953,16.46535 z"            id="path1518"            style="fill:#000000;fill-opacity:1;stroke:none" />    <path            d="m 97.352067,760.76532 a 7.0575702,6.3059081 7.1546543 1 1 -12.59878,-0.69594 7.0575702,6.3059081 7.1546543 1 1 0.69594,12.59878 z"            id="path1519"            style="fill:#ffffff;fill-opacity:0.85384611;stroke:none" />    <path            d="m 96.994257,758.87884 a 4.5178701,4.3682751 15.871797 1 1 -8.73703,-0.48262 4.5178701,4.3682751 15.871797 1 1 0.48262,8.73703 z"            id="path1520"            style="fill:#e6e6e6;fill-opacity:1;stroke:none" />    <g            transform="matrix(-0.25508152,1.8203622,1.6754551,0.28892721,3027.6871,-442.7588)"            id="g4294">        <path                d="m 141.18918,1342.3058 c 0,0 -45.71909,26.3797 -34.36656,60.3835 -3.0958,-1.03356 -6.7513,-2.85942 -8.5606,-5.93039"                id="path4280"                style="fill:none;stroke:#4b660f;stroke-width:2.16385531;stroke-linecap:round;stroke-linejoin:round;stroke-miterlimit:4;stroke-dasharray:none;stroke-opacity:1" />        <path                d="m 175.27698,1281.0494 c 1.7297,-0.95887 19.07412,22.6798 21.12326,27.2829 3.19265,7.1717 3.28539,16.1046 21.1508,-11.02183 4.003,-14.38916 1.3397,-28.47229 9.6925,-39.88625 -10.16894,9.6181 -19.74152,18.6673 -27.1164,31.4152 -2.18382,6.9597 -4.83155,10.3385 -2.66842,26.711 z"                id="path4282"                style="fill:#4d0305;fill-opacity:1;stroke:#4b660f;stroke-width:2.1434021;stroke-linecap:round;stroke-linejoin:round;stroke-miterlimit:4;stroke-dasharray:none;stroke-opacity:1" />        <path                d="m 180.8068,1329.972 c -5.9187,-0.33187 -1.69807,16.005 -16.3679,18.8911 0.69428,5.8488 2.03062,10.2342 16.6822,-7.97796 0.028,-0.62042 2.1966,-4.28534 2.8047,-8.34118 -0.2027,-0.0173 -0.3839,-0.0364 -0.5958,-0.0488 z"                id="path4284"                style="fill:#b10005;fill-opacity:1;stroke:none" />        <path                d="m 164.54572,1278.3223 c 0,0 -7.0724,-0.16715 -10.84598,6.6414"                id="path4289"                style="fill:none;stroke:#4b660f;stroke-width:2.1434021;stroke-linecap:round;stroke-linejoin:round;stroke-miterlimit:4;stroke-dasharray:none;stroke-opacity:1" />        <path                d="m 145.31164,1331.3079 c 0,0 9.0021,-8.59442 18.5262,-3.14937"                id="path4292"                style="fill:none;stroke:#4b660f;stroke-width:2.1434021;stroke-linecap:round;stroke-linejoin:round;stroke-miterlimit:4;stroke-dasharray:none;stroke-opacity:1" />        <path                d="m 175.27698,1281.0494 c 1.7297,-0.95887 19.07412,22.6798 21.12326,27.2829 3.19265,7.1717 3.28539,16.1046 21.1508,-11.02183 4.003,-14.38916 1.3397,-28.47229 9.6925,-39.88625 -10.16894,9.6181 -19.74152,18.6673 -27.1164,31.4152 -2.18382,6.9597 -4.83155,10.3385 -2.66842,26.711 z"                id="path4303"                style="fill:none;stroke:#4b660f;stroke-width:2.1434021;stroke-linecap:round;stroke-linejoin:round;stroke-miterlimit:4;stroke-dasharray:none;stroke-opacity:1" />    </g>    <path            d="m 41.112157,753.29682 c 0.33971,-1.66218 -4.35996,0.21974 -3.60127,0.10652 2.41088,16.07511 8.8842,25.63464 22.61751,40.03206 -12.05813,-15.9538 -20.31396,-20.5611 -39.92554,-26.21878 z"            id="path1542"            style="fill:#000000;fill-opacity:1;fill-rule:nonzero;stroke:#000100;stroke-width:0;stroke-miterlimit:4;stroke-opacity:1" />    <path            d="m 124.11416,689.59878 a 4.5311695,4.5040382 88.698394 1 0 9.05994,-0.20851 4.5311695,4.5040382 88.698394 0 0 -0.20851,9.05994 z"            id="path4357"            style="fill:#4b660f;fill-opacity:1;stroke:none" />    <path            d="m 56.622017,652.60979 c 5.06862,7.76742 14.33875,13.4201 25.43224,14.51846 18.004903,1.78265 -34.001463,9.13989 -35.745383,24.42035 -0.36951,3.23777 -0.0702,6.41016 -9.41705,-0.80444 3.15533,4.83795 4.68587,10.5022 4.0167,16.3655 15.28044,-1.74401 26.203,-17.74049 24.42034,-35.745373 -1.40465,-14.1871 -10.28601,-25.38888 -21.4669,-28.64451 z"            id="path3179"            style="fill:#e6e6e6;fill-opacity:1;stroke:none" />    <path            d="m 71.089447,766.74524 c 6.31322,6.80716 16.42131,10.80577 27.55732,10.02803 -14.899133,1.04055 -26.970033,10.36289 -30.280693,22.20821 1.50249,1.11785 3.18704,2.28241 4.98376,3.3224 13.23603,-1.96483 24.06667,-14.79151 25.19335,-30.92453 0.99462,-14.241473 -5.85928,-26.798083 -16.33557,-31.897243 z"            id="path3184"            style="fill:#e6e6e6;fill-opacity:1;stroke:none" />    <path            d="m 27.845128,648.81764 c -0.65583,-1.834794 4.930229,0.95339 4.085448,0.70187 -5.558501,17.96522 -14.607211,27.83664 -32.775501,42.06187 11.19652,-20.28969 19.88021,-26.98392 41.36,-36.860949 z"            id="path4351"            style="fill:#000000;fill-opacity:1;fill-rule:nonzero;stroke:#000100;stroke-width:0;stroke-miterlimit:4;stroke-opacity:1" />    <path            d="m 220.09547,639.82957 c -0.295,1.22062 3.27613,-0.43879 2.71436,-0.32504 7.83629,3.60537 12.11583,9.56436 18.26035,21.55494 -13.41239,-4.81001 -17.81444,-8.58018 -24.2693,-17.93531 z"            id="path6428"            style="fill:#4b660f;fill-opacity:1;fill-rule:nonzero;stroke:#000100;stroke-width:0;stroke-miterlimit:4;stroke-opacity:1" />    <path            d="m 140.08598,761.2242 c 0,0 -20.84625,-40.537603 -73.98431,-29.88415"            id="path4276"            style="fill:#82af16;fill-opacity:1;stroke:#4b660f;stroke-width:3.88740611;stroke-linecap:round;stroke-linejoin:round;stroke-miterlimit:4;stroke-dasharray:none;stroke-opacity:1" />    <path            d="m 131.38639,741.06106 a 3.3069511,3.6427389 3.1761986 1 0 0.40396,7.27427 3.3069511,3.6427389 3.1761986 0 0 -7.27427,-0.40396 z"            id="path4377"            style="fill:#4b660f;fill-opacity:1;stroke:none" /></svg>