<?xml version="1.0" encoding="utf-8"?><!-- Generator: Adobe Illustrator 15.1.0, SVG Export Plug-In . SVG Version: 6.00 Build 0)  --><!DOCTYPE svg PUBLIC "-//W3C//DTD SVG 1.1//EN" "http://www.w3.org/Graphics/SVG/1.1/DTD/svg11.dtd"><svg version="1.1" id="Layer_1" xmlns="http://www.w3.org/2000/svg" xmlns:xlink="http://www.w3.org/1999/xlink" x="0px" y="0px"	 width="500px" height="500px" viewBox="0 0 500 500" enable-background="new 0 0 500 500" xml:space="preserve"><g id="XMLID_2_">	<g>		<path fill="#010101" d="M107.602,199.835c4.899,0.09,15.398,2.832,19.931,5.054c0.505,1.458,1.977-2.999,0.875-0.637			c-2.851-4.037-4.401-14.389-4.401-22.195C105.605,202.729,106.994,199.835,107.602,199.835z M313.561,478.082			c29.049,0.055-53.193,10.204-74.986,20.323c-0.968,0.904-0.695,3.042-0.701,4.906c-29.428,2.628-68.673,5.054-77.092,28.033			c-3.056,8.332-15.768-0.871-20.324-6.31c-10.154-12.117-13.328-34.586-17.519-52.562c-1.543-1.255-4.998-0.609-7.01-1.4			c-6.132-9.835-14.485-0.702,34.546-39.948c-5.754-6.504,7.057-6.308,14.346-24.528c-14.155,17.152-35.174,33.507-45.552,56.769			c-27.044,4.346-48.742,10.556-68.682,21.026c-18.431,9.67-37.341,26.594-37.844,51.159c-0.854,41.193-62.947-29.286-70.782-64.477			c-2.138-9.588-6.027-2.103,21.283-25.229c-16.917-11.403-37.585-29.708-39.947-56.766c-0.869-9.986-0.223-5.607,20.388-25.231			c7.078-15.096,1.338-21.725,0.414,0.701c-1.156-9.118-2.719-17.836-3.502-27.333c-0.799,3.702-4.5,7.738-4.204,11.916			c-4.702-0.321-7.583-6.117-11.213-7.008c-2.726-0.665-0.588,5.55-0.7,8.41c-1.451,36.239-74.477-21.172-84.8-50.459			c-10.338-5.103-21.109-13.436-18.221-29.436c-7.254,14.737-23.28-8.458-14.017-16.821c5.103-14.746,4.604-21.026,3.111,0			c3.791-8.712,5.788-18.921,10.442-9.812c-0.077-8.249-5.698-14.184-2.803-23.126c17.366-22.517,9.503,25.23,15.18,29.433			c2.384,10.856,10.442,18.446,25.231,14.717c3.791,7.892,6.005,17.359,6.306,28.734c0.295-20.542,18.158-37.844,16.363-17.52			c2.643-25.658-5.705-45.862-21.025-57.467c-4.688,11.789-24.052-6.54-18.922-18.922c-3.602-3.476-14.212-3.441-20.323-2.102			c7.589,2.221,8.123,11.507,14.717,14.717c-6.763-3.98-14.185-7.302-16.821-15.417c2.285-8.852,3.083-14.017,1.892-2.103			c-21.747-15.159-50.382-23.443-58.167-52.561c-8.592-4.696-23.708-24.312-13.315-37.144c1.198-3.868,1.472-6.307,2.634-3.505			c-1.71-11.864,16.477-26.63,26.323-19.623c17.121-55.196,16.546-69.381,9.047,4.905c4.473-12.945,3.475-14.718,3.329,2.804			c18.48-36.191,8.418,36.442,4.393,23.126c1.695,4.381,4.801,7.344,9.11,9.11c6.293-5.012,2.614-12.615,10.442-10.512			c14.149-12.439,0.126,3.504,25.923,32.939c7.07,3.869,15.895,1.051-15.418,8.411c-2.915,1.059-6.215,1.731-8.411,3.505			c-0.763,2.74-1.872,5.138-1.401,9.11c-9.51,1.977-21.368,0.387,26.63,4.205c3.946-7.093,0.203-9.11,0.244,2.104			c3.322,1.731-6.18,1.745,0,9.11c7.688-21.648,5.081-15.418,2.305,9.11c3.097-6.3,2.277-9.111,4.443-7.008			c4.044,8.107,9.966,14.325,14.015,22.425c3.764,0.491-4.473,2.074-7.009,2.804c8.089-19.633,6.862-32.939,10.273-11.914			c3.182,4.297,6.686,8.27,10.512,11.913c15.222-34.572,5.718-44.151,16.596-32.939c3.049-7.956,5.193-7.008,13.532-18.221			c-1.471-7.294-12.354-4.912-17.519-9.812c-5.18-13.882,12.916-21.025,14.541-9.11c3.321-4.301,0.883-7.008,4.107-5.606			c-1.527-5.944-5.243-9.715-4.205-18.223c6.446-22.084,12.846-23.828,4.254,7.009c15.241-10,11.003,23.645,17.521,9.109			c11.494,2.88,8.41,19.021,8.41,30.135c11.459,9.791-21.13,5.558-22.426,16.819c-15.593,11.964-35.546,16.939-52.563,26.631			c-16.952,9.655-30.423,21.81-42.75,35.742c6.994,9.824,14.387,19.253,23.127,27.334			C227.906,434.609,260.298,477.984,313.561,478.082z M369.627,464.064c6.771-13.071,20.282-11.214,40.376-64.478			c-3.124-40.55-37.073-69.893-82.696-65.877c-2.458,27.937-18.572,48.876-35.741,63.775			c-18.424,15.985-40.957,26.357-65.878,34.341c-2.277-0.491-0.49-3.952-3.506-2.102c-15.207,21.472-21.466,51.88-23.127,86.901			c22.907,16.749,35.069,50.151,32.938,87.604c33.113-58.252,1.878-77.089,20.203-39.244c3.952-17.9,3.995-19.624,15.551-19.624			c2.179-5.144-0.653-2.803,12.216-15.417c8.759,1.92-18.444,1.133-25.929,2.803C362.463,405.35,371.105,429.647,369.627,464.064z			 M372.428,462.663c-0.871,33.807-57.58-8.289-75.689-23.128c-4.6,1.478-8.747,3.405-11.916,6.307			c18.789,14.772,30.358,39.98,25.93,75.688C382.002,458.221,377.719,460.946,372.428,462.663z M119.433,411.503			c9.271-22.077,1.844-17.521,6.371-17.521c-9.341-3.315-2.312,13.406-22.426-0.7c-17.975-6-15.502-40.466-30.835-39.947			c-0.148,4.199-4.345,7.204-7.007,7.711c-10.212,1.927,12.917,7.793,23.127,4.904c-1.086-1.017-1.471-2.734-1.4-4.905			c-3.588,6.791-13.028,11.136-23.128,9.11c-26.967,7.604-27.149,42-51.86,51.861c12.741,8.285,28.053,13.995,48.358,14.718			c0.701,8.879,3.504,15.656,6.307,22.425c13.962-26.717,12.7-36.444,25.923-43.451			C155.406,393.774,134.633,398.623,119.433,411.503z M88.596,396.785c14.928-5.024,4.022-23.912-6.308-12.615			C79.542,393.227,84.567,394.509,88.596,396.785z M104.714,359.643c0.205-2.411,5.404-3.504,8.802-13.316			c-6.258-2.032-20.954-5.48-5.607,19.622C101.394,347.078,100.216,356.201,104.714,359.643z M241.375,375.061			c-11.929-13.854-28.215-28.438-51.861-30.135c-5.453-0.386-1.268,14.463-18.923-0.7c2.277-4.311,0.057-5.609,0.357-1.402			c-15.687-18.894-36.746-32.398-60.272-43.451c2.584-4.906,1.528,8.409,2.312,2.104c1.683-4.696,4.394-6.307,7.45-11.914			c-6.02-4.954-12.508-9.448-19.621-13.315c-10.68,0.126,19.924,4.792,30.135,2.803c-9.139-2.305-15.508-7.386-25.229-9.11			c-10.562,2.25,17.919,4.416,25.931,7.008c-11.948,8.837-18.564,23.022-25.931,36.442c6.958,8.668,15.838,16.329,28.733,17.52			c25.124,2.327-39.457,20.016-49.058,35.041c26.764,1.037,48.364,7.232,66.578,16.82c0.645,42.925,76.349-102.322,8.213-24.529			C291.766,309.113,256.101,331.616,241.375,375.061z M209.838,323.199c0.581-20.71-8.913-44.075-21.726-54.665			c-10.868-8.985-3.273,36.323-14.717,41.349c8.705,22.37,24.536,37.606,39.947,53.262			C209.838,316.662,209.838,319.929,209.838,323.199z M477.551,290.963c20.477-32.236,19.433-35.741,55.267-89.004			c-13.05,22.596-9.581,68.162-91.808,0c11.613,2.137-23.296,0.827-32.236,4.206c-6.352,2.397-13.976,4.535-15.419,9.11			c2.895-9.727,8.788-9.11,17.365-27.331c-2.509,18.515-8.998,33.059-21.726,41.348c32.798,7.352,58.525,28.685,60.971,63.774			C492.753,270.112,485.725,282.355,477.551,290.963z M163.584,246.109c-2.06-6.111-0.525-15.826-4.905-19.622			c-3.952,1.892-4.688,6.994-9.11,8.41C157.285,236.529,161.405,240.349,163.584,246.109z M170.593,246.81			c-1.759-7.583-9.413-9.279-14.017-14.016c4.114,0.609-4.386,2.62-7.708,2.804C165.7,236.283,169.149,240.553,170.593,246.81z			 M151.67,226.486c3.232-8.852,3.308-7.709,4.233-11.914c-2.768-3.995-9.7-1.29-0.701,12.614c-3.959-2.25-5.873-1.584-2.102,8.411			c0.638,3.568,9.854-11.213,1.444,1.401c-13.484,5.192-22.86,16.525-21.024,30.835c-13.47-1.724-26.63-18.664-26.63-32.939			c0-38.468,26.827-53.962,34.83-51.16c4.01-8.999,4.219-10.512,10.884-16.118c2.396-8.27-0.342-20.842-8.41-20.324			c-0.427,6.636-10.772,7.226-11.914,11.916c-26.141,9.936-38.35,56.374-82.698,46.254c4.051,0.925,10.73,3.933,14.717,7.008			c7.472,5.753,18.544,19.862,16.821,32.238c8.466-11.241,1.179-23.829,12.187-8.41c1.268-3.434,1.998-2.803,3.106-7.009			C151.839,231.462,154.213,226.516,151.67,226.486z M406.769,232.093c1.451-0.372,5.088-0.7,12.713-18.923			c-2.131,20.534-10.653,34.662-21.727,46.254c-6.202,0.127,11.431,0.721,16.119,2.101			C417.534,198.474,406.987,211.979,406.769,232.093z M87.896,225.084c2.005-4.416,2.6-8.011,0-9.812			c-19.833,13.813-23.43,43.85-46.255,54.664c1.955,8.262,7.373-9.812,5.235-9.11c1.03,3.112,4.114,0,7.709,0			c2.86-2.488,1.809-4.905,6.855-9.111c0.343,3.147,5.249-7.71,0.35-0.701c2.319-2.124,1.417-4.205,5.354-7.009			c0.779,3.743,0.918,6.932,9.812-0.7c1.332-1.984,2.404-2.803,5.495-8.41C89.801,220.916,88.345,222.492,87.896,225.084z			 M188.814,227.888c-4.513-6.701-7.386-15.034-8.41-25.23c-11.003,16.567-20.155,34.972-32.939,49.757c0,3.505,0,7.008,0,10.512			c1.844,7.737,3.287,15.873,7.008,21.725C207.33,205.286,200.307,218.827,188.814,227.888z M295.338,167.618			c18.208-44.04,9.552-41.348,25.313-51.159c-2.896-27.794-35.006-42.96-66.578-31.537			C224.87,164.877,265.301,175.508,295.338,167.618z M73.178,196.352c5.999-20.534,5.859-7.008,23.533-27.332			c-13.891-3.889-17.022,20.232-20.324,28.032c18.158,3.56-29.771,10.568-30.836,21.726c-3.378,35.208-37.312-52.913-2.101-51.861			c-0.653-6.18,12.796-11.913,18.116-24.529c-1.885-4.723-10.246-2.704-12.615,0c-10.288-7.344-20.737-14.184-35.741-15.418			C2.779,85.547,24.385,71.762,46.546,64.599c2.951,1.023,2.573,5.376,5.607,6.307c-1.03,3.413-6.068-5.222-7.008-2.104			c-4.85,1.899-14.605,1.92-20.324,0.701c2.383,1.121,1.135,5.872,4.205,6.308c-0.188,2.523-3.379-1.291-5.607-1.402			c28.727,8.423,37.038,37.255,51.861,59.57c-2.081-5.86-7.33-8.549-7.008-16.821c8.067-19.105,3.083,24.529,2.167,6.308			c-8.193-1.045-15.215-6.581-23.127-5.607c8.698,1.816,13.995,7.029,19.624,11.915c1.976-8.935,3.189-12.616,7.989-4.905			c-0.679,18.264-27.556,16.19,25.229,1.402c7.358-7.54,0.974-12.615,9.917-11.914c-4.746,1.563-8.599,4.015-11.914,7.009			c10.05,11.676,23.316,20.135,43.451,21.726c10.072-19.721,6.279-29.436,12.986-19.623c-25.25-6.244-40.908-22.643-38.546-49.757			C98.38,164.155,85.261,183.975,73.178,196.352z M43.743,200.557c1.745-32.014-50.79-31.495-1.401,47.656			c1.57,11.978,8.909,18.193,18.222,22.425C57.142,184.052,45.572,187.436,43.743,200.557z M286.229,169.02			c0.154-27.018-5.234-48.498-16.82-63.775c-7.113,14.395-3.771,37.284-51.162-1.402c-0.834,1.737-4.297,0.847-3.504,4.205			c2.754-6.609,8.15-1.402,17.066-23.828c-7.604-9.867-30.619-4.366-8.41,28.033c10.499,2.123,3.379,18.789,21.726,0			c-9.939,3.603-10.611,22.854-23.829-0.7c-0.728-7.485,8.445-16.819,13.813-14.717c-3.145-12.881-4.688-34.362-21.023-29.436			c-9.896,3.665,19.083,6.433,27.333,2.102c-0.224,1.857,0.659-3.925-2.102-2.803c-22.566-5.389-32.875,20.177-32.938,6.309			c0.057,11.41,6.344-5.607,16.237-23.126c8.557,6.819,25.265,4.941-25.229,5.607c-10.351-0.036-12.229-14.087-12.615-25.931			c-9.721-4.113-24.984-3.049-11.915,21.726c6.987,4.97,16.141-21.025,1.675,1.402c-3.307,0.126-3.778-1.256-2.101,3.505			c-19.904,3.734,25.132,13.142,31.538,25.23c-1.471,3.098-6.209-2.965-6.307,0C278.877,74.675,300.111,121.637,286.229,169.02z			 M291.835,153.601c8.094,2.634,6.229,14.682,14.716-2.803C289.928,163.376,290.882,158.486,291.835,153.601z M95.604,147.994			c3.441,35.398,33.863-54.426-1.401-48.357C51.943,119.303,93.095,122.126,95.604,147.994z M221.051,150.096			c-2.523-8.15-19.771-11.97-3.504,16.821C224.64,140.13,222.845,145.114,221.051,150.096z M31.83,68.801			c1.885-9.777,7.505-11.213,12.588-18.221c-14.087-4.71-3.588,24.073-18.221,23.127C30.52,60.686,31.487,64.744,31.83,68.801z			 M44.445,63.194c0.89-3.035,4.255-4.206,7.239-11.214c-4.612-0.407-5.9-0.407-10.513,0C38.362,57.602,42.847,58.954,44.445,63.194			z M34.633,55.486c-4.751,15.573-33.954,4.878,33.64,5.607c-1.739-6.42-0.484-1.401,15.887-21.025			C44.108,59.095,40.541,56.116,34.633,55.486z"/>		<path fill="#D6A563" d="M127.533,204.887c-2.22-4.534-4.961-15.033-5.053-19.931c0-2.895,0.608-3.651,1.997-2.901			c0,1.548,7.807,4.401,18.158,22.195C126.658,206.863,128.038,206.345,127.533,204.887z"/>		<path fill="#669BC7" d="M305.149,475.278c24.102,1.857-44.193,4.443-64.478,11.214c-1.479,34.417-58.715-7.163-75.688-23.129			c1.667-4.723,7.484-2.803,17.17-25.929c-3.203,3.453-10.273,0.622-15.417,2.803c-4.073,1.724-15.629,15.672-19.624,19.624			c-19.041,18.837-37.366,43.976-39.244,77.09c-2.132,37.452-70.853-10.026-87.603-32.938c35.021-65.429,1.661-86.901,7.92-23.127			c3.016-1.228,1.851,3.506,1.61,2.102c7.983-18.354,24.92-34.341,47.451-65.878c14.899-35.839,17.169-63.772,33.283-35.741			C235.257,438.204,264.6,472.154,305.149,475.278z"/>		<path fill="#669BC7" d="M349.3,386.974c14.839,18.109,23.999,41.881,23.128,75.689c-5.291,1.718-9.574,4.444-14.718,6.309			c-4.429,35.707-60.915-7.142-75.688-25.93C358.048,383.568,353.899,385.496,349.3,386.974z"/>		<path fill="#FFD035" d="M101.913,429.023c11.149,4.557-15.677,8.249-17.521,17.521c-15.2,12.88-35.973,17.731-53.263,27.332			c-17.527,9.728-30.751,22.482-43.451,36.444c-6.769-2.804-13.546-5.607-22.425-6.308c-0.723-20.303-6.433-35.615-14.718-48.357			c24.71-44.258,9.862-51.861,24.893-51.861c-2.025-2.319,10.1-9.11,19.54-23.128c-2.173,0.07,3.891,0.314,4.905,1.4			c2.889-10.211-6.831-12.915-4.904-23.126c0.507-3.512,2.663-7.711,6.861-7.008c15.333-12.86,0.518,30.835,33.948,39.947			C104.225,415.617,98.596,419.682,101.913,429.023z"/>		<path fill="#FFD035" d="M75.982,390.479c11.333-21.237,11.298,6.309,8.593,12.615C84.567,394.509,79.542,393.227,75.982,390.479z"			/>		<path fill="#FFD035" d="M91.398,363.146c-4.514,1.093-7.912,3.299-13.316,3.504c-3.441-4.498-12.564-3.322-16.118-7.708			C85.918,342.191,89.367,356.889,91.398,363.146z"/>		<path fill="#FFFFFF" d="M211.24,323.199c1.695,23.646,16.28,39.933,30.135,51.861c-14.726,43.444-50.391,65.947-93.912,80.595			c-16.314,25.972-25.174,59.396-24.527,102.321c-9.588-18.214-15.783-39.813-16.82-66.577			c15.025-37.367,9.601-35.041,23.933-49.058c-1.191-12.896-8.852-21.775-17.521-28.733c13.421-27.605,7.366-36.442,13.982-25.931			c-2.593-8.011-9.259-15.369-7.008-25.931c1.724,9.72,6.805,16.091,9.11,25.229c1.989-10.211-2.93-19.455-2.804-30.135			c3.87,7.113,8.361,13.603,13.315,19.621c-4.463,1.609-7.52,4.624-11.914,6.307c-0.211,3.503-5.823-3.631-8.408-2.104			c11.052,23.525,24.557,44.585,43.451,60.271c-1.044,1.297-1.347,3.33-1.402,5.607C212.508,308.736,210.855,317.746,211.24,323.199			z"/>		<path fill="#FFFFFF" d="M155.175,301.474c10.589,12.812,33.954,22.307,54.664,21.726c-3.271,0-6.537,0-9.812,0			c-15.655-15.411-30.892-31.242-53.262-39.948C158.446,265.15,146.19,290.605,155.175,301.474z"/>		<path fill="#669BC7" d="M388.548,326.704c-33.739,3.505-69.57,15.265-89.007,35.741c-8.17,8.607-15.2,20.851-14.014,37.846			c-35.089-2.445-56.423-28.174-63.774-60.971c8.292-22.833,12.729-41.348,19.216-21.726c9.965,0.617-18.545,6.217-27.334,9.11			c4.577-6.715,1.445-9.11,9.071-15.42c3.378-6.343,8.942-4.206,20.625-32.238C398.128,258.542,401.597,304.108,388.548,326.704z"/>		<path fill="#FFFFFF" d="M143.962,241.203c3.798,4.381,13.511,2.845,19.622,4.905c-5.76-2.179-9.58-6.299-13.315-10.512			C148.648,234.209,147.914,239.312,143.962,241.203z"/>		<path fill="#FFFFFF" d="M156.575,232.793c4.738,4.604,6.434,12.258,14.016,14.017c-6.259-1.444-10.527-4.892-16.821-6.307			C160.962,230.172,160.689,233.402,156.575,232.793z"/>		<path fill="#D6A563" d="M139.756,234.195c7.681,1.143-8.606,4.477-11.914,7.709c2.543,0.029,0.168,4.976,3.505,4.205			c3.903,0.63-5.012,1.535-7.009,2.803c-12.588-3.778-7.231,15.362-8.41,23.829c-1.724,12.377-26.484-9.349-32.238-16.82			c-3.076-3.988-6.083-10.667-7.008-14.718c-10.12-36.316,44.348-46.254,56.557-82.698c4.689-5.278,1.141-11.916,11.486-11.913			c8.065-10.807,0.518,8.41,12.054,20.323c-5.235,1.514-11.9,6.504-16.119,10.512c-16.329,15.494-24.333,53.962-51.16,53.962			c0,13.161,14.274,26.63,31.215,32.938c1.836,14.312,25.644-30.835,7.54-21.024c-1.359-2.846-7.646-0.764-11.213-1.401			c2.538-4.45,3.687-8.411,4.352-2.102C138.467,224.496,135.76,231.428,139.756,234.195z"/>		<path fill="#669BC7" d="M387.846,232.793c-6.21,0.33,13.835,0.751-18.923,0.7c-0.216,20.113-10.766,33.619-18.923,43.451			c-1.38-4.689-2.229-9.917-2.102-16.119C398.499,198.131,389.977,212.26,387.846,232.793z"/>		<path fill="#FFFFFF" d="M78.083,225.084c1.801,4.416,7.212,2.005,0,9.812c-0.449,2.592-1.905,4.169-1.401,7.708			c-2.915,0.819-6.006,1.472-8.41,2.803c-1.619,2.88-1.479,6.069-0.7,9.812c-1.655,2.082-5.593,1.886-7.009,4.205			c-0.351,2.461-1.044,4.562-0.701,7.71c-2.256,2.418-7.302,2.047-9.111,4.905c-3.595,0-1.03,4.597-7.709,0			c-3.875,2.438-11.066,1.548-9.11,9.812C101.513,181.234,97.917,211.272,78.083,225.084z"/>		<path fill="#FFFFFF" d="M163.584,219.478c10.196,1.024,18.53,3.897,25.23,8.41c-11.494,9.062-18.516,22.603-25.229,36.442			c-5.853-3.721-13.988-5.165-21.725-7.008c0-3.505,0-7.009,0-10.512C183.74,184.506,174.587,202.912,163.584,219.478z"/>		<path fill="#FFFFFF" d="M244.179,208.966c25.846,2.691-41.607,23.142-51.159,41.348c7.892-30.037-2.74-70.468-25.229-82.696			C201.219,173.96,216.385,206.07,244.179,208.966z"/>		<path fill="#FFD035" d="M45.846,203.358c3.799,13.526-21.473,1.009-27.332,7.008c-12.083,12.377-25.202,32.197-49.758,34.341			c-27.115,2.362,43.515,13.293,49.757,38.546c-6.637,9.715-13.344,19.364-19.623,29.436c-1.59-20.135-10.049-33.4-21.725-43.451			c2.994-5.445,3.315-7.009,7.17-11.914c-1.997,5.074-10.939,5.256-11.914,12.616c-2.327,17.59-19.666-24.55-1.401-25.229			c-3.68-3.084-1.716,10.639-4.905,12.615c-4.885-5.629-10.1-10.926-11.915-19.624c7.912-14.935,0.974,23.126,4.562,5.607			c-5.423-4.143-16.461-9.391-24.528-6.308c-8.27,0.323,10.961,4.926,16.821,7.007c-22.313-14.823-51.144-23.134-59.569-51.861			c0.112,2.228,1.591,3.084,1.402,5.606c-0.434-3.07-5.187-1.822-6.309-4.205c-1.219-5.719-1.198-0.702,15.475-20.324			c0.938-3.595,3.119,7.008,3.133,2.104c-0.933-3.035-5.283-2.657-6.306-5.607c7.162-20.947,22.16-50.459,43.766-41.349			c1.234,15.005,8.074,25.455,15.418,35.741c2.37-10.73,2.704-12.616,4.723,0c-6.413,5.733-11.733,12.566-24.529,11.914			c-35.209-1.051-55.24,33.107,51.861,2.102c11.157-25.286,1.065-21.725,12.678-30.836			C62.869,183.126,41.957,189.468,45.846,203.358z M132.749,140.985c1.878-3.692,1.787,6.307,0.427,0			c-3.518-5.978-12.727-0.498-5.606,12.615c0.799,3.834,1.759-4.905,4.309-4.205c-3.917,0.688,8.291,4.997,4.905,7.007			C138.04,143.642,136.89,140.819,132.749,140.985z"/>		<path fill="#FFFFFF" d="M45.145,152.901c-3.133-49.401,32.895-47.656,33.415-1.401c-1.829,13.12-13.399,16.505-19.624,25.231			C54.053,171.094,46.715,164.877,45.145,152.901z M36.035,189.343c0.295,2.859,4.421-4.206,0.715-3.505			c-0.75-3.392-6.924-2.496-2.101,5.607C35.362,188.137,35.817,188.733,36.035,189.343z"/>		<path fill="#010101" d="M32.53,193.546c2.788,0.218-3.798,1.344-3.505,4.205c-0.61-0.218-1.206-0.672-1.401-1.401			C30.036,186.624,29.138,192.797,32.53,193.546z"/>		<path fill="#FFD035" d="M222.453,152.2c15.277,11.583,36.758,16.974,63.775,16.82c-13.883,47.383-94.345-7.354-109.329-41.35			c0.098-3.209,2.964,6.307,1.472,0c-12.089-6.405-28.965-11.633-25.23-31.537c-0.273-3.378,3.357,3.505,1.205-2.102			c-4.884-3.076-5.585,16.056-21.025-1.402c-3.259-12.005,14.962-21.726,16.028-11.915c11.844,0.386,25.896,2.264,25.931,12.615			c0.035,10.549,12.427-5.607,16.671-25.229c6.89,0.736,23.183,5.802-23.127,5.607c-13.868-0.062-16.257-6.309,38.328-32.939			c2.761-0.244,1.122,2.102,3.027,2.803c4.331-8.248-5.768-17.436-2.102-27.332c16.337-17.878,4.927,21.024,16.553,29.436			c-0.904,9.335-6.272,17.549-14.717,16.821c11.312,0.975,10.638,20.226,0.7,23.829c-3.379,2.937-10.499,19.603-21.726,0			c-2.586-20.429,12.775-28.033,18.277-8.41c6.763,5.208,15.677,1.352-23.828,1.402c0.791,3.356,2.466-4.205,2.671-3.504			C226.224,114.916,229.566,137.805,222.453,152.2z"/>		<path fill="#FFFFFF" d="M289.032,168.317c-9.032,0.034-10.896,12.082-2.803,14.716			C290.882,158.486,289.928,163.376,289.032,168.317z"/>		<path fill="#FFFFFF" d="M47.248,146.593c35.264-36.8,6.069,1.401,51.797,48.358C93.095,122.126,51.943,119.303,47.248,146.593z			 M80.887,145.893c0.294,2.858,4.422-4.205,0.714-3.505c-0.749-3.392-6.924-2.494-2.104,5.606			C80.124,144.771,80.691,145.218,80.887,145.893z"/>		<path fill="#010101" d="M77.382,150.096c2.789,0.218-3.799,1.345-3.505,4.206c-0.672-0.196-1.121-0.764-1.401-1.401			C74.888,143.173,73.99,149.347,77.382,150.096z"/>		<path fill="#FFD035" d="M132.749,147.294c-0.427,2.615-4.43-1.787-6.307,0c-4.142,0.168,5.292,2.657,6.308,5.607			c-3.384,2.012-7.696-0.989-7.009-4.905c-3.146-0.105-5.005,1.072-4.206,4.905C132.25,134.565,126.769,143.774,132.749,147.294z"/>		<path fill="#FFFFFF" d="M224.555,133.278c-2.951-14.296,15.474-16.819,11.654-3.504			C222.845,145.114,224.64,140.13,224.555,133.278z"/>		<path fill="#FFFFFF" d="M13.609,80.015c-5.634,1.437-10.715,9.329-18.221,11.213c-4.057-0.343-8.115-1.31-11.914,0			C17.197,55.942,8.898,65.928,13.609,80.015z"/>		<path fill="#FFFFFF" d="M33.231,67.4c-3.975,1.171-6.959,3.315-11.214,4.206c-4.24-1.598-5.592-6.083-6.307-11.214			C32.824,61.5,32.824,62.788,33.231,67.4z"/>		<path fill="#FFFFFF" d="M68.272,61.093c-0.315,10.485-21.18-28.888-5.607-33.641c5.908,0.63,9.476,3.609,12.616,7.008			C52.384,60.609,61.852,59.354,68.272,61.093z"/>	</g>	<g>		<path fill="none" stroke="#D6A563" stroke-linejoin="round" stroke-miterlimit="10" d="M104.701,203.485			c0,1.548,7.807,4.401,18.158,22.195c-1.023-0.238-1.142,1.541-3,0.637c-2.22-4.534-4.961-15.033-5.053-19.931			C106.994,199.835,105.605,202.729,104.701,203.485z"/>	</g></g><path fill="none" stroke="#010101" stroke-width="0.5" stroke-linecap="round" stroke-linejoin="round" d="M96.803,274.767"/><path fill="none" stroke="#010101" stroke-width="0.5" stroke-linecap="round" stroke-linejoin="round" d="M91.197,280.375"/><path fill="none" stroke="#010101" stroke-width="0.5" stroke-linecap="round" stroke-linejoin="round" d="M91.197,280.375"/><path fill="#EF3D25" d="M128.194,209.648c-0.113,0.841-2.8,17.177-11.005,19.153c-6.537,1.573,19.816,5.536,24.399,5.536	c0.901,4.862,9.493-13.98,2.008-3.388c4.489-1.379-3.46-11.632-2.862-15.131c0.598-2.973,3.499-4.496,1.707-3.207	c1.524-8.452,1.5-6.355,5.854-11.681C128.335,217.332,127.515,214.732,128.194,209.648z"/><path fill="none" stroke="#010101" stroke-width="1.5" stroke-linecap="round" stroke-miterlimit="10" d="M141.376,213.15	c0,0-3.782,9.433-6.972,10.522"/><path fill="none" stroke="#010101" stroke-width="1.5" stroke-linecap="round" stroke-miterlimit="10" d="M131.557,197.846	c0.45,3.877,8.595-10.682,0.095,1.903"/></svg>